%TF.GenerationSoftware,KiCad,Pcbnew,5.1.12-84ad8e8a86~92~ubuntu18.04.1*%
%TF.CreationDate,2022-11-06T13:13:17+00:00*%
%TF.ProjectId,Pan_Mix_B,50616e5f-4d69-4785-9f42-2e6b69636164,rev?*%
%TF.SameCoordinates,Original*%
%TF.FileFunction,Soldermask,Bot*%
%TF.FilePolarity,Negative*%
%FSLAX46Y46*%
G04 Gerber Fmt 4.6, Leading zero omitted, Abs format (unit mm)*
G04 Created by KiCad (PCBNEW 5.1.12-84ad8e8a86~92~ubuntu18.04.1) date 2022-11-06 13:13:17*
%MOMM*%
%LPD*%
G01*
G04 APERTURE LIST*
%ADD10C,3.200000*%
%ADD11O,1.600000X1.600000*%
%ADD12R,1.600000X1.600000*%
%ADD13C,1.600000*%
%ADD14C,1.440000*%
%ADD15R,1.800000X1.100000*%
%ADD16O,1.700000X1.700000*%
%ADD17R,1.700000X1.700000*%
%ADD18O,1.600000X1.800000*%
%ADD19R,1.600000X1.800000*%
%ADD20O,1.800000X1.600000*%
%ADD21R,1.800000X1.600000*%
G04 APERTURE END LIST*
D10*
%TO.C,REF\u002A\u002A*%
X135636000Y-147828000D03*
%TD*%
%TO.C,REF\u002A\u002A*%
X135636000Y-78740000D03*
%TD*%
%TO.C,REF\u002A\u002A*%
X142875000Y-147828000D03*
%TD*%
%TO.C,REF\u002A\u002A*%
X186055000Y-147955000D03*
%TD*%
D11*
%TO.C,D4*%
X187960000Y-126365000D03*
D12*
X187960000Y-133985000D03*
%TD*%
D11*
%TO.C,D3*%
X191135000Y-133985000D03*
D12*
X191135000Y-126365000D03*
%TD*%
D13*
%TO.C,C2*%
X196890000Y-117475000D03*
D12*
X199390000Y-117475000D03*
%TD*%
D10*
%TO.C,REF\u002A\u002A*%
X142875000Y-78740000D03*
%TD*%
%TO.C,REF\u002A\u002A*%
X186055000Y-78740000D03*
%TD*%
D11*
%TO.C,U2*%
X155575000Y-133985000D03*
X170815000Y-141605000D03*
X158115000Y-133985000D03*
X168275000Y-141605000D03*
X160655000Y-133985000D03*
X165735000Y-141605000D03*
X163195000Y-133985000D03*
X163195000Y-141605000D03*
X165735000Y-133985000D03*
X160655000Y-141605000D03*
X168275000Y-133985000D03*
X158115000Y-141605000D03*
X170815000Y-133985000D03*
D12*
X155575000Y-141605000D03*
%TD*%
D11*
%TO.C,U1*%
X155575000Y-99695000D03*
X170815000Y-107315000D03*
X158115000Y-99695000D03*
X168275000Y-107315000D03*
X160655000Y-99695000D03*
X165735000Y-107315000D03*
X163195000Y-99695000D03*
X163195000Y-107315000D03*
X165735000Y-99695000D03*
X160655000Y-107315000D03*
X168275000Y-99695000D03*
X158115000Y-107315000D03*
X170815000Y-99695000D03*
D12*
X155575000Y-107315000D03*
%TD*%
D14*
%TO.C,RV2*%
X190500000Y-139700000D03*
X187960000Y-139700000D03*
X185420000Y-139700000D03*
%TD*%
%TO.C,RV1*%
X143230600Y-135763000D03*
X143230600Y-138303000D03*
X143230600Y-140843000D03*
%TD*%
D11*
%TO.C,R40*%
X172085000Y-80645000D03*
D13*
X164465000Y-80645000D03*
%TD*%
D11*
%TO.C,R39*%
X165100000Y-91440000D03*
D13*
X165100000Y-83820000D03*
%TD*%
D11*
%TO.C,R38*%
X169545000Y-95885000D03*
D13*
X177165000Y-95885000D03*
%TD*%
D11*
%TO.C,R37*%
X184150000Y-92710000D03*
D13*
X184150000Y-85090000D03*
%TD*%
D11*
%TO.C,R36*%
X174625000Y-85090000D03*
D13*
X174625000Y-92710000D03*
%TD*%
D11*
%TO.C,R35*%
X154305000Y-80645000D03*
D13*
X161925000Y-80645000D03*
%TD*%
D11*
%TO.C,R34*%
X161417000Y-91440000D03*
D13*
X161417000Y-83820000D03*
%TD*%
D11*
%TO.C,R33*%
X156845000Y-95885000D03*
D13*
X149225000Y-95885000D03*
%TD*%
D11*
%TO.C,R32*%
X142240000Y-92710000D03*
D13*
X142240000Y-85090000D03*
%TD*%
D11*
%TO.C,R31*%
X151765000Y-85090000D03*
D13*
X151765000Y-92710000D03*
%TD*%
D11*
%TO.C,R30*%
X176530000Y-123190000D03*
D13*
X168910000Y-123190000D03*
%TD*%
D11*
%TO.C,R29*%
X168910000Y-130175000D03*
D13*
X176530000Y-130175000D03*
%TD*%
D11*
%TO.C,R28*%
X176530000Y-126619000D03*
D13*
X168910000Y-126619000D03*
%TD*%
D11*
%TO.C,R27*%
X184785000Y-122555000D03*
D13*
X184785000Y-130175000D03*
%TD*%
D11*
%TO.C,R26*%
X181610000Y-122555000D03*
D13*
X181610000Y-130175000D03*
%TD*%
D11*
%TO.C,R25*%
X169545000Y-146177000D03*
D13*
X177165000Y-146177000D03*
%TD*%
D11*
%TO.C,R24*%
X177165000Y-149860000D03*
D13*
X169545000Y-149860000D03*
%TD*%
D11*
%TO.C,R23*%
X159385000Y-149860000D03*
D13*
X167005000Y-149860000D03*
%TD*%
D11*
%TO.C,R16*%
X149860000Y-123190000D03*
D13*
X157480000Y-123190000D03*
%TD*%
D11*
%TO.C,R15*%
X157480000Y-130175000D03*
D13*
X149860000Y-130175000D03*
%TD*%
D11*
%TO.C,R14*%
X149860000Y-126619000D03*
D13*
X157480000Y-126619000D03*
%TD*%
D11*
%TO.C,R13*%
X141605000Y-119037100D03*
D13*
X141605000Y-126657100D03*
%TD*%
D11*
%TO.C,R12*%
X144780000Y-119037100D03*
D13*
X144780000Y-126657100D03*
%TD*%
D11*
%TO.C,R11*%
X156845000Y-146177000D03*
D13*
X149225000Y-146177000D03*
%TD*%
D11*
%TO.C,R10*%
X149225000Y-149860000D03*
D13*
X156845000Y-149860000D03*
%TD*%
D11*
%TO.C,R9*%
X167005000Y-146177000D03*
D13*
X159385000Y-146177000D03*
%TD*%
D11*
%TO.C,R6*%
X173355000Y-111125000D03*
D13*
X165735000Y-111125000D03*
%TD*%
D11*
%TO.C,R5*%
X155575000Y-111125000D03*
D13*
X147955000Y-111125000D03*
%TD*%
D15*
%TO.C,Q4*%
X170453000Y-92075000D03*
G36*
G01*
X171078000Y-90085000D02*
X169828000Y-90085000D01*
G75*
G02*
X169553000Y-89810000I0J275000D01*
G01*
X169553000Y-89260000D01*
G75*
G02*
X169828000Y-88985000I275000J0D01*
G01*
X171078000Y-88985000D01*
G75*
G02*
X171353000Y-89260000I0J-275000D01*
G01*
X171353000Y-89810000D01*
G75*
G02*
X171078000Y-90085000I-275000J0D01*
G01*
G37*
G36*
G01*
X169008000Y-91355000D02*
X167758000Y-91355000D01*
G75*
G02*
X167483000Y-91080000I0J275000D01*
G01*
X167483000Y-90530000D01*
G75*
G02*
X167758000Y-90255000I275000J0D01*
G01*
X169008000Y-90255000D01*
G75*
G02*
X169283000Y-90530000I0J-275000D01*
G01*
X169283000Y-91080000D01*
G75*
G02*
X169008000Y-91355000I-275000J0D01*
G01*
G37*
%TD*%
%TO.C,Q3*%
X169145000Y-83820000D03*
G36*
G01*
X168520000Y-85810000D02*
X169770000Y-85810000D01*
G75*
G02*
X170045000Y-86085000I0J-275000D01*
G01*
X170045000Y-86635000D01*
G75*
G02*
X169770000Y-86910000I-275000J0D01*
G01*
X168520000Y-86910000D01*
G75*
G02*
X168245000Y-86635000I0J275000D01*
G01*
X168245000Y-86085000D01*
G75*
G02*
X168520000Y-85810000I275000J0D01*
G01*
G37*
G36*
G01*
X170590000Y-84540000D02*
X171840000Y-84540000D01*
G75*
G02*
X172115000Y-84815000I0J-275000D01*
G01*
X172115000Y-85365000D01*
G75*
G02*
X171840000Y-85640000I-275000J0D01*
G01*
X170590000Y-85640000D01*
G75*
G02*
X170315000Y-85365000I0J275000D01*
G01*
X170315000Y-84815000D01*
G75*
G02*
X170590000Y-84540000I275000J0D01*
G01*
G37*
%TD*%
%TO.C,Q2*%
X157245000Y-92075000D03*
G36*
G01*
X157870000Y-90085000D02*
X156620000Y-90085000D01*
G75*
G02*
X156345000Y-89810000I0J275000D01*
G01*
X156345000Y-89260000D01*
G75*
G02*
X156620000Y-88985000I275000J0D01*
G01*
X157870000Y-88985000D01*
G75*
G02*
X158145000Y-89260000I0J-275000D01*
G01*
X158145000Y-89810000D01*
G75*
G02*
X157870000Y-90085000I-275000J0D01*
G01*
G37*
G36*
G01*
X155800000Y-91355000D02*
X154550000Y-91355000D01*
G75*
G02*
X154275000Y-91080000I0J275000D01*
G01*
X154275000Y-90530000D01*
G75*
G02*
X154550000Y-90255000I275000J0D01*
G01*
X155800000Y-90255000D01*
G75*
G02*
X156075000Y-90530000I0J-275000D01*
G01*
X156075000Y-91080000D01*
G75*
G02*
X155800000Y-91355000I-275000J0D01*
G01*
G37*
%TD*%
%TO.C,Q1*%
X155937000Y-83820000D03*
G36*
G01*
X155312000Y-85810000D02*
X156562000Y-85810000D01*
G75*
G02*
X156837000Y-86085000I0J-275000D01*
G01*
X156837000Y-86635000D01*
G75*
G02*
X156562000Y-86910000I-275000J0D01*
G01*
X155312000Y-86910000D01*
G75*
G02*
X155037000Y-86635000I0J275000D01*
G01*
X155037000Y-86085000D01*
G75*
G02*
X155312000Y-85810000I275000J0D01*
G01*
G37*
G36*
G01*
X157382000Y-84540000D02*
X158632000Y-84540000D01*
G75*
G02*
X158907000Y-84815000I0J-275000D01*
G01*
X158907000Y-85365000D01*
G75*
G02*
X158632000Y-85640000I-275000J0D01*
G01*
X157382000Y-85640000D01*
G75*
G02*
X157107000Y-85365000I0J275000D01*
G01*
X157107000Y-84815000D01*
G75*
G02*
X157382000Y-84540000I275000J0D01*
G01*
G37*
%TD*%
D16*
%TO.C,J11*%
X196850000Y-127635000D03*
X199390000Y-127635000D03*
X196850000Y-130175000D03*
X199390000Y-130175000D03*
X196850000Y-132715000D03*
X199390000Y-132715000D03*
X196850000Y-135255000D03*
X199390000Y-135255000D03*
X196850000Y-137795000D03*
D17*
X199390000Y-137795000D03*
%TD*%
D18*
%TO.C,J10*%
X164465000Y-120650000D03*
D19*
X161925000Y-120650000D03*
%TD*%
D20*
%TO.C,J9*%
X191770000Y-114935000D03*
X191770000Y-112395000D03*
D16*
X191770000Y-109855000D03*
X191770000Y-107315000D03*
D17*
X191770000Y-104775000D03*
%TD*%
D18*
%TO.C,J8*%
X182245000Y-133985000D03*
D19*
X184785000Y-133985000D03*
%TD*%
D16*
%TO.C,J7*%
X168275000Y-115570000D03*
X165735000Y-115570000D03*
X163195000Y-115570000D03*
X160655000Y-115570000D03*
D17*
X158115000Y-115570000D03*
%TD*%
D20*
%TO.C,J6*%
X182245000Y-114935000D03*
X182245000Y-112395000D03*
D16*
X182245000Y-109855000D03*
X182245000Y-107315000D03*
D17*
X182245000Y-104775000D03*
%TD*%
D18*
%TO.C,J5*%
X144145000Y-130467100D03*
D19*
X141605000Y-130467100D03*
%TD*%
D16*
%TO.C,J4*%
X165735000Y-76835000D03*
X163195000Y-76835000D03*
D17*
X160655000Y-76835000D03*
%TD*%
D18*
%TO.C,J3*%
X165735000Y-95377000D03*
X163195000Y-95377000D03*
D19*
X160655000Y-95377000D03*
%TD*%
D20*
%TO.C,J2*%
X139065000Y-114935000D03*
X139065000Y-112395000D03*
X139065000Y-109855000D03*
X139065000Y-107315000D03*
D21*
X139065000Y-104775000D03*
%TD*%
D16*
%TO.C,J1*%
X165735000Y-126619000D03*
D18*
X163195000Y-126619000D03*
D19*
X160655000Y-126619000D03*
%TD*%
D11*
%TO.C,D8*%
X180975000Y-92710000D03*
D12*
X180975000Y-85090000D03*
%TD*%
D11*
%TO.C,D7*%
X177800000Y-85090000D03*
D12*
X177800000Y-92710000D03*
%TD*%
D11*
%TO.C,D6*%
X145415000Y-92710000D03*
D12*
X145415000Y-85090000D03*
%TD*%
D11*
%TO.C,D5*%
X148590000Y-85090000D03*
D12*
X148590000Y-92710000D03*
%TD*%
D11*
%TO.C,D2*%
X138430000Y-122847100D03*
D12*
X138430000Y-130467100D03*
%TD*%
D11*
%TO.C,D1*%
X135255000Y-130467100D03*
D12*
X135255000Y-122847100D03*
%TD*%
D13*
%TO.C,C19*%
X178094000Y-139700000D03*
D12*
X180594000Y-139700000D03*
%TD*%
D13*
%TO.C,C18*%
X178990000Y-133985000D03*
X173990000Y-133985000D03*
%TD*%
%TO.C,C17*%
X175260000Y-115864000D03*
D12*
X175260000Y-118364000D03*
%TD*%
D13*
%TO.C,C13*%
X151090000Y-139700000D03*
D12*
X148590000Y-139700000D03*
%TD*%
D13*
%TO.C,C12*%
X147400000Y-133985000D03*
X152400000Y-133985000D03*
%TD*%
%TO.C,C7*%
X151384000Y-115864000D03*
D12*
X151384000Y-118364000D03*
%TD*%
D13*
%TO.C,C6*%
X165655000Y-130175000D03*
X160655000Y-130175000D03*
%TD*%
%TO.C,C4*%
X152320000Y-99695000D03*
X147320000Y-99695000D03*
%TD*%
%TO.C,C1*%
X191095000Y-120650000D03*
D12*
X188595000Y-120650000D03*
%TD*%
D13*
%TO.C,C5*%
X174244000Y-138510000D03*
X174244000Y-143510000D03*
%TD*%
%TO.C,C3*%
X163115000Y-111125000D03*
X158115000Y-111125000D03*
%TD*%
M02*
