%TF.GenerationSoftware,KiCad,Pcbnew,5.1.12-84ad8e8a86~92~ubuntu18.04.1*%
%TF.CreationDate,2022-11-06T13:13:17+00:00*%
%TF.ProjectId,Pan_Mix_B,50616e5f-4d69-4785-9f42-2e6b69636164,rev?*%
%TF.SameCoordinates,Original*%
%TF.FileFunction,Legend,Bot*%
%TF.FilePolarity,Positive*%
%FSLAX46Y46*%
G04 Gerber Fmt 4.6, Leading zero omitted, Abs format (unit mm)*
G04 Created by KiCad (PCBNEW 5.1.12-84ad8e8a86~92~ubuntu18.04.1) date 2022-11-06 13:13:17*
%MOMM*%
%LPD*%
G01*
G04 APERTURE LIST*
%ADD10C,0.120000*%
%ADD11C,0.150000*%
G04 APERTURE END LIST*
D10*
X193090800Y-103454200D02*
X191770000Y-103454200D01*
X193090800Y-104775000D02*
X193090800Y-103454200D01*
X190449200Y-116255800D02*
X193090800Y-116255800D01*
X190449200Y-106045000D02*
X190449200Y-116255800D01*
X193090800Y-106045000D02*
X190474600Y-106045000D01*
X193090800Y-116255800D02*
X193090800Y-106045000D01*
%TO.C,J9*%
D11*
X194111571Y-106077238D02*
X194111571Y-106410571D01*
X194635380Y-106553428D02*
X194635380Y-106077238D01*
X193635380Y-106077238D01*
X193635380Y-106553428D01*
X193635380Y-106886761D02*
X194635380Y-107553428D01*
X193635380Y-107553428D02*
X194635380Y-106886761D01*
X194635380Y-107934380D02*
X193635380Y-107934380D01*
X193635380Y-108315333D01*
X193683000Y-108410571D01*
X193730619Y-108458190D01*
X193825857Y-108505809D01*
X193968714Y-108505809D01*
X194063952Y-108458190D01*
X194111571Y-108410571D01*
X194159190Y-108315333D01*
X194159190Y-107934380D01*
X194349666Y-108886761D02*
X194349666Y-109362952D01*
X194635380Y-108791523D02*
X193635380Y-109124857D01*
X194635380Y-109458190D01*
X194635380Y-109791523D02*
X193635380Y-109791523D01*
X194635380Y-110362952D01*
X193635380Y-110362952D01*
X194587761Y-110791523D02*
X194635380Y-110934380D01*
X194635380Y-111172476D01*
X194587761Y-111267714D01*
X194540142Y-111315333D01*
X194444904Y-111362952D01*
X194349666Y-111362952D01*
X194254428Y-111315333D01*
X194206809Y-111267714D01*
X194159190Y-111172476D01*
X194111571Y-110982000D01*
X194063952Y-110886761D01*
X194016333Y-110839142D01*
X193921095Y-110791523D01*
X193825857Y-110791523D01*
X193730619Y-110839142D01*
X193683000Y-110886761D01*
X193635380Y-110982000D01*
X193635380Y-111220095D01*
X193683000Y-111362952D01*
X194635380Y-111791523D02*
X193635380Y-111791523D01*
X193635380Y-112458190D02*
X193635380Y-112648666D01*
X193683000Y-112743904D01*
X193778238Y-112839142D01*
X193968714Y-112886761D01*
X194302047Y-112886761D01*
X194492523Y-112839142D01*
X194587761Y-112743904D01*
X194635380Y-112648666D01*
X194635380Y-112458190D01*
X194587761Y-112362952D01*
X194492523Y-112267714D01*
X194302047Y-112220095D01*
X193968714Y-112220095D01*
X193778238Y-112267714D01*
X193683000Y-112362952D01*
X193635380Y-112458190D01*
X194635380Y-113315333D02*
X193635380Y-113315333D01*
X194635380Y-113886761D01*
X193635380Y-113886761D01*
X189848904Y-104846428D02*
X189087000Y-104846428D01*
X188087000Y-105227380D02*
X188658428Y-105227380D01*
X188372714Y-105227380D02*
X188372714Y-104227380D01*
X188467952Y-104370238D01*
X188563190Y-104465476D01*
X188658428Y-104513095D01*
X187706047Y-104322619D02*
X187658428Y-104275000D01*
X187563190Y-104227380D01*
X187325095Y-104227380D01*
X187229857Y-104275000D01*
X187182238Y-104322619D01*
X187134619Y-104417857D01*
X187134619Y-104513095D01*
X187182238Y-104655952D01*
X187753666Y-105227380D01*
X187134619Y-105227380D01*
X186848904Y-104227380D02*
X186515571Y-105227380D01*
X186182238Y-104227380D01*
X189229904Y-106815000D02*
X189325142Y-106767380D01*
X189468000Y-106767380D01*
X189610857Y-106815000D01*
X189706095Y-106910238D01*
X189753714Y-107005476D01*
X189801333Y-107195952D01*
X189801333Y-107338809D01*
X189753714Y-107529285D01*
X189706095Y-107624523D01*
X189610857Y-107719761D01*
X189468000Y-107767380D01*
X189372761Y-107767380D01*
X189229904Y-107719761D01*
X189182285Y-107672142D01*
X189182285Y-107338809D01*
X189372761Y-107338809D01*
X188753714Y-107767380D02*
X188753714Y-106767380D01*
X188182285Y-107767380D01*
X188182285Y-106767380D01*
X187706095Y-107767380D02*
X187706095Y-106767380D01*
X187468000Y-106767380D01*
X187325142Y-106815000D01*
X187229904Y-106910238D01*
X187182285Y-107005476D01*
X187134666Y-107195952D01*
X187134666Y-107338809D01*
X187182285Y-107529285D01*
X187229904Y-107624523D01*
X187325142Y-107719761D01*
X187468000Y-107767380D01*
X187706095Y-107767380D01*
X189848904Y-109926428D02*
X189087000Y-109926428D01*
X189467952Y-110307380D02*
X189467952Y-109545476D01*
X188087000Y-110307380D02*
X188658428Y-110307380D01*
X188372714Y-110307380D02*
X188372714Y-109307380D01*
X188467952Y-109450238D01*
X188563190Y-109545476D01*
X188658428Y-109593095D01*
X187706047Y-109402619D02*
X187658428Y-109355000D01*
X187563190Y-109307380D01*
X187325095Y-109307380D01*
X187229857Y-109355000D01*
X187182238Y-109402619D01*
X187134619Y-109497857D01*
X187134619Y-109593095D01*
X187182238Y-109735952D01*
X187753666Y-110307380D01*
X187134619Y-110307380D01*
X186848904Y-109307380D02*
X186515571Y-110307380D01*
X186182238Y-109307380D01*
X189356904Y-112847380D02*
X189833095Y-112847380D01*
X189833095Y-111847380D01*
X188261666Y-112847380D02*
X188261666Y-112180714D01*
X188261666Y-111847380D02*
X188309285Y-111895000D01*
X188261666Y-111942619D01*
X188214047Y-111895000D01*
X188261666Y-111847380D01*
X188261666Y-111942619D01*
X187785476Y-112180714D02*
X187785476Y-112847380D01*
X187785476Y-112275952D02*
X187737857Y-112228333D01*
X187642619Y-112180714D01*
X187499761Y-112180714D01*
X187404523Y-112228333D01*
X187356904Y-112323571D01*
X187356904Y-112847380D01*
X189229904Y-115387380D02*
X189563238Y-114911190D01*
X189801333Y-115387380D02*
X189801333Y-114387380D01*
X189420380Y-114387380D01*
X189325142Y-114435000D01*
X189277523Y-114482619D01*
X189229904Y-114577857D01*
X189229904Y-114720714D01*
X189277523Y-114815952D01*
X189325142Y-114863571D01*
X189420380Y-114911190D01*
X189801333Y-114911190D01*
X188039428Y-115387380D02*
X188039428Y-114720714D01*
X188039428Y-114387380D02*
X188087047Y-114435000D01*
X188039428Y-114482619D01*
X187991809Y-114435000D01*
X188039428Y-114387380D01*
X188039428Y-114482619D01*
X187563238Y-114720714D02*
X187563238Y-115387380D01*
X187563238Y-114815952D02*
X187515619Y-114768333D01*
X187420380Y-114720714D01*
X187277523Y-114720714D01*
X187182285Y-114768333D01*
X187134666Y-114863571D01*
X187134666Y-115387380D01*
%TD*%
M02*
