M48
; DRILL file {KiCad 5.1.12-84ad8e8a86~92~ubuntu18.04.1} date Sun 06 Nov 2022 13:13:20 GMT
; FORMAT={-:-/ absolute / metric / decimal}
; #@! TF.CreationDate,2022-11-06T13:13:20+00:00
; #@! TF.GenerationSoftware,Kicad,Pcbnew,5.1.12-84ad8e8a86~92~ubuntu18.04.1
FMAT,2
METRIC
T1C0.400
T2C0.750
T3C0.800
T4C1.000
T5C3.200
%
G90
G05
T1
X169.672Y-138.43
T2
X155.575Y-90.805
X156.337Y-83.82
X156.337Y-86.36
X156.845Y-89.535
X156.845Y-92.075
X157.607Y-85.09
X168.783Y-90.805
X169.545Y-83.82
X169.545Y-86.36
X170.053Y-89.535
X170.053Y-92.075
X170.815Y-85.09
T3
X135.255Y-122.847
X135.255Y-130.467
X138.43Y-122.847
X138.43Y-130.467
X141.605Y-119.037
X141.605Y-126.657
X142.24Y-85.09
X142.24Y-92.71
X143.231Y-135.763
X143.231Y-138.303
X143.231Y-140.843
X144.78Y-119.037
X144.78Y-126.657
X145.415Y-85.09
X145.415Y-92.71
X147.32Y-99.695
X147.4Y-133.985
X147.955Y-111.125
X148.59Y-85.09
X148.59Y-92.71
X148.59Y-139.7
X149.225Y-95.885
X149.225Y-146.177
X149.225Y-149.86
X149.86Y-123.19
X149.86Y-126.619
X149.86Y-130.175
X151.09Y-139.7
X151.384Y-115.864
X151.384Y-118.364
X151.765Y-85.09
X151.765Y-92.71
X152.32Y-99.695
X152.4Y-133.985
X154.305Y-80.645
X155.575Y-99.695
X155.575Y-107.315
X155.575Y-111.125
X155.575Y-133.985
X155.575Y-141.605
X156.845Y-95.885
X156.845Y-146.177
X156.845Y-149.86
X157.48Y-123.19
X157.48Y-126.619
X157.48Y-130.175
X158.115Y-99.695
X158.115Y-107.315
X158.115Y-111.125
X158.115Y-133.985
X158.115Y-141.605
X159.385Y-146.177
X159.385Y-149.86
X160.655Y-99.695
X160.655Y-107.315
X160.655Y-130.175
X160.655Y-133.985
X160.655Y-141.605
X161.417Y-83.82
X161.417Y-91.44
X161.925Y-80.645
X163.115Y-111.125
X163.195Y-99.695
X163.195Y-107.315
X163.195Y-133.985
X163.195Y-141.605
X164.465Y-80.645
X165.1Y-83.82
X165.1Y-91.44
X165.655Y-130.175
X165.735Y-99.695
X165.735Y-107.315
X165.735Y-111.125
X165.735Y-133.985
X165.735Y-141.605
X167.005Y-146.177
X167.005Y-149.86
X168.275Y-99.695
X168.275Y-107.315
X168.275Y-133.985
X168.275Y-141.605
X168.91Y-123.19
X168.91Y-126.619
X168.91Y-130.175
X169.545Y-95.885
X169.545Y-146.177
X169.545Y-149.86
X170.815Y-99.695
X170.815Y-107.315
X170.815Y-133.985
X170.815Y-141.605
X172.085Y-80.645
X173.355Y-111.125
X173.99Y-133.985
X174.244Y-138.51
X174.244Y-143.51
X174.625Y-85.09
X174.625Y-92.71
X175.26Y-115.864
X175.26Y-118.364
X176.53Y-123.19
X176.53Y-126.619
X176.53Y-130.175
X177.165Y-95.885
X177.165Y-146.177
X177.165Y-149.86
X177.8Y-85.09
X177.8Y-92.71
X178.094Y-139.7
X178.99Y-133.985
X180.594Y-139.7
X180.975Y-85.09
X180.975Y-92.71
X181.61Y-122.555
X181.61Y-130.175
X184.15Y-85.09
X184.15Y-92.71
X184.785Y-122.555
X184.785Y-130.175
X185.42Y-139.7
X187.96Y-126.365
X187.96Y-133.985
X187.96Y-139.7
X188.595Y-120.65
X190.5Y-139.7
X191.095Y-120.65
X191.135Y-126.365
X191.135Y-133.985
X196.89Y-117.475
X199.39Y-117.475
T4
X139.065Y-104.775
X139.065Y-107.315
X139.065Y-109.855
X139.065Y-112.395
X139.065Y-114.935
X141.605Y-130.467
X144.145Y-130.467
X158.115Y-115.57
X160.655Y-76.835
X160.655Y-95.377
X160.655Y-115.57
X160.655Y-126.619
X161.925Y-120.65
X163.195Y-76.835
X163.195Y-95.377
X163.195Y-115.57
X163.195Y-126.619
X164.465Y-120.65
X165.735Y-76.835
X165.735Y-95.377
X165.735Y-115.57
X165.735Y-126.619
X168.275Y-115.57
X182.245Y-104.775
X182.245Y-107.315
X182.245Y-109.855
X182.245Y-112.395
X182.245Y-114.935
X182.245Y-133.985
X184.785Y-133.985
X191.77Y-104.775
X191.77Y-107.315
X191.77Y-109.855
X191.77Y-112.395
X191.77Y-114.935
X196.85Y-127.635
X196.85Y-130.175
X196.85Y-132.715
X196.85Y-135.255
X196.85Y-137.795
X199.39Y-127.635
X199.39Y-130.175
X199.39Y-132.715
X199.39Y-135.255
X199.39Y-137.795
T5
X135.636Y-78.74
X135.636Y-147.828
X142.875Y-78.74
X142.875Y-147.828
X186.055Y-78.74
X186.055Y-147.955
T0
M30
