M48
; DRILL file {KiCad 5.1.12-84ad8e8a86~92~ubuntu18.04.1} date Sun 06 Nov 2022 13:14:34 GMT
; FORMAT={-:-/ absolute / metric / decimal}
; #@! TF.CreationDate,2022-11-06T13:14:34+00:00
; #@! TF.GenerationSoftware,Kicad,Pcbnew,5.1.12-84ad8e8a86~92~ubuntu18.04.1
FMAT,2
METRIC
T1C0.750
T2C0.800
T3C1.000
T4C3.200
%
G90
G05
T1
X129.286Y-67.945
X130.556Y-66.675
X130.556Y-69.215
X152.4Y-66.675
X153.67Y-65.405
X153.67Y-67.945
X160.02Y-68.326
X161.29Y-67.056
X161.29Y-69.596
X184.785Y-66.675
X186.055Y-65.405
X186.055Y-67.945
T2
X127.0Y-88.9
X127.0Y-95.25
X127.0Y-98.425
X127.0Y-101.6
X127.0Y-104.775
X127.0Y-107.95
X127.635Y-46.355
X127.635Y-53.975
X129.286Y-74.295
X129.286Y-76.795
X129.54Y-92.075
X130.81Y-38.735
X130.81Y-46.355
X130.81Y-48.895
X130.81Y-53.895
X130.81Y-56.515
X130.81Y-64.135
X133.985Y-38.735
X133.985Y-42.545
X133.985Y-46.355
X133.985Y-48.895
X133.985Y-51.435
X133.985Y-53.975
X133.985Y-56.515
X133.985Y-59.055
X133.985Y-61.595
X134.54Y-92.075
X134.62Y-66.675
X134.62Y-74.295
X134.62Y-77.47
X134.62Y-85.09
X134.62Y-88.9
X134.62Y-95.25
X134.62Y-98.425
X134.62Y-101.6
X134.62Y-104.775
X134.62Y-107.95
X137.795Y-66.675
X137.795Y-69.215
X137.795Y-71.755
X137.795Y-74.295
X137.795Y-81.915
X137.795Y-86.36
X137.795Y-88.9
X137.795Y-91.44
X137.795Y-93.98
X137.795Y-96.52
X137.795Y-99.06
X137.795Y-101.6
X137.795Y-104.14
X139.145Y-78.105
X141.605Y-38.735
X141.605Y-42.545
X141.605Y-46.355
X141.605Y-48.895
X141.605Y-51.435
X141.605Y-53.975
X141.605Y-56.515
X141.605Y-59.055
X141.605Y-61.595
X142.28Y-109.22
X144.145Y-78.105
X144.78Y-43.942
X144.78Y-51.562
X144.78Y-58.42
X144.78Y-61.595
X144.78Y-109.22
X144.86Y-55.245
X145.415Y-40.132
X145.415Y-66.675
X145.415Y-69.215
X145.415Y-71.755
X145.415Y-74.295
X145.415Y-81.915
X145.415Y-86.36
X145.415Y-88.9
X145.415Y-91.44
X145.415Y-93.98
X145.415Y-96.52
X145.415Y-99.06
X145.415Y-101.6
X145.415Y-104.14
X147.955Y-40.132
X147.955Y-43.942
X147.955Y-51.562
X148.59Y-66.755
X148.59Y-71.755
X148.59Y-85.725
X148.59Y-88.9
X148.59Y-95.25
X148.59Y-98.425
X148.59Y-101.6
X148.59Y-104.775
X148.59Y-107.95
X148.67Y-92.075
X149.86Y-55.245
X149.86Y-78.145
X149.86Y-80.645
X150.495Y-40.132
X151.13Y-43.942
X151.13Y-51.562
X152.4Y-58.42
X152.4Y-61.595
X153.67Y-92.075
X154.305Y-43.942
X154.305Y-51.562
X154.94Y-74.295
X154.94Y-81.915
X156.21Y-85.725
X156.21Y-88.9
X156.21Y-95.25
X156.21Y-98.425
X156.21Y-101.6
X156.21Y-104.775
X156.21Y-107.95
X156.845Y-53.975
X156.845Y-61.595
X159.258Y-95.25
X159.258Y-98.425
X159.258Y-101.6
X159.258Y-104.775
X159.258Y-107.95
X159.385Y-88.9
X160.02Y-38.735
X160.02Y-46.355
X160.02Y-48.895
X160.02Y-53.895
X160.02Y-56.515
X160.02Y-64.135
X161.29Y-74.295
X161.29Y-76.795
X161.29Y-92.075
X163.195Y-38.735
X163.195Y-42.545
X163.195Y-46.355
X163.195Y-48.895
X163.195Y-51.435
X163.195Y-53.975
X163.195Y-56.515
X163.195Y-59.055
X163.195Y-61.595
X166.29Y-92.075
X166.878Y-95.25
X166.878Y-98.425
X166.878Y-101.6
X166.878Y-104.775
X166.878Y-107.95
X167.005Y-66.675
X167.005Y-74.295
X167.005Y-77.47
X167.005Y-85.09
X167.005Y-88.9
X170.18Y-66.675
X170.18Y-69.215
X170.18Y-71.755
X170.18Y-74.295
X170.18Y-81.915
X170.18Y-86.36
X170.18Y-88.9
X170.18Y-91.44
X170.18Y-93.98
X170.18Y-96.52
X170.18Y-99.06
X170.18Y-101.6
X170.18Y-104.14
X170.815Y-38.735
X170.815Y-42.545
X170.815Y-46.355
X170.815Y-48.895
X170.815Y-51.435
X170.815Y-53.975
X170.815Y-56.515
X170.815Y-59.055
X170.815Y-61.595
X171.53Y-78.105
X173.99Y-44.196
X173.99Y-51.816
X173.99Y-58.42
X173.99Y-61.595
X174.07Y-54.864
X174.625Y-40.386
X174.665Y-109.22
X176.53Y-78.105
X177.165Y-40.386
X177.165Y-44.196
X177.165Y-51.816
X177.165Y-109.22
X177.8Y-66.675
X177.8Y-69.215
X177.8Y-71.755
X177.8Y-74.295
X177.8Y-81.915
X177.8Y-86.36
X177.8Y-88.9
X177.8Y-91.44
X177.8Y-93.98
X177.8Y-96.52
X177.8Y-99.06
X177.8Y-101.6
X177.8Y-104.14
X179.07Y-54.864
X179.705Y-40.386
X180.34Y-44.196
X180.34Y-51.816
X180.975Y-66.755
X180.975Y-71.755
X180.975Y-85.725
X180.975Y-88.9
X180.975Y-95.25
X180.975Y-98.425
X180.975Y-101.6
X180.975Y-104.775
X180.975Y-107.95
X181.055Y-92.075
X181.61Y-58.42
X181.61Y-61.595
X181.737Y-54.864
X182.245Y-78.145
X182.245Y-80.645
X183.515Y-44.196
X183.515Y-51.816
X186.055Y-92.075
X186.69Y-59.182
X186.69Y-61.682
X186.817Y-44.196
X186.817Y-51.816
X187.325Y-74.295
X187.325Y-81.915
X188.595Y-85.725
X188.595Y-88.9
X188.595Y-95.25
X188.595Y-98.425
X188.595Y-101.6
X188.595Y-104.775
X188.595Y-107.95
X189.357Y-54.864
X192.532Y-80.391
X192.532Y-82.891
T3
X129.286Y-81.28
X129.286Y-83.82
X154.94Y-38.354
X154.94Y-40.894
X161.29Y-81.28
X161.29Y-83.82
X184.277Y-38.735
X184.277Y-41.275
X190.373Y-46.482
X190.373Y-49.022
X195.072Y-66.04
X195.072Y-68.58
X195.072Y-71.12
X195.072Y-73.66
X195.072Y-76.2
T4
X193.294Y-40.005
X193.294Y-109.22
T0
M30
