%TF.GenerationSoftware,KiCad,Pcbnew,5.1.12-84ad8e8a86~92~ubuntu18.04.1*%
%TF.CreationDate,2022-11-06T13:14:27+00:00*%
%TF.ProjectId,Pan_Mix_A,50616e5f-4d69-4785-9f41-2e6b69636164,rev?*%
%TF.SameCoordinates,Original*%
%TF.FileFunction,Soldermask,Bot*%
%TF.FilePolarity,Negative*%
%FSLAX46Y46*%
G04 Gerber Fmt 4.6, Leading zero omitted, Abs format (unit mm)*
G04 Created by KiCad (PCBNEW 5.1.12-84ad8e8a86~92~ubuntu18.04.1) date 2022-11-06 13:14:27*
%MOMM*%
%LPD*%
G01*
G04 APERTURE LIST*
%ADD10O,1.700000X1.700000*%
%ADD11R,1.700000X1.700000*%
%ADD12C,3.200000*%
%ADD13O,1.600000X1.600000*%
%ADD14C,1.600000*%
%ADD15R,1.800000X1.100000*%
%ADD16R,1.600000X1.600000*%
%ADD17C,1.440000*%
G04 APERTURE END LIST*
D10*
%TO.C,J6*%
X195072000Y-76200000D03*
X195072000Y-73660000D03*
X195072000Y-71120000D03*
X195072000Y-68580000D03*
D11*
X195072000Y-66040000D03*
%TD*%
D12*
%TO.C,REF\u002A\u002A*%
X193294000Y-109220000D03*
%TD*%
%TO.C,REF\u002A\u002A*%
X193294000Y-40005000D03*
%TD*%
D10*
%TO.C,J3*%
X190373000Y-49022000D03*
D11*
X190373000Y-46482000D03*
%TD*%
D13*
%TO.C,R4*%
X189357000Y-54864000D03*
D14*
X181737000Y-54864000D03*
%TD*%
%TO.C,R3*%
X186817000Y-51816000D03*
D13*
X186817000Y-44196000D03*
%TD*%
D15*
%TO.C,Q102*%
X154070000Y-67945000D03*
G36*
G01*
X154695000Y-65955000D02*
X153445000Y-65955000D01*
G75*
G02*
X153170000Y-65680000I0J275000D01*
G01*
X153170000Y-65130000D01*
G75*
G02*
X153445000Y-64855000I275000J0D01*
G01*
X154695000Y-64855000D01*
G75*
G02*
X154970000Y-65130000I0J-275000D01*
G01*
X154970000Y-65680000D01*
G75*
G02*
X154695000Y-65955000I-275000J0D01*
G01*
G37*
G36*
G01*
X152625000Y-67225000D02*
X151375000Y-67225000D01*
G75*
G02*
X151100000Y-66950000I0J275000D01*
G01*
X151100000Y-66400000D01*
G75*
G02*
X151375000Y-66125000I275000J0D01*
G01*
X152625000Y-66125000D01*
G75*
G02*
X152900000Y-66400000I0J-275000D01*
G01*
X152900000Y-66950000D01*
G75*
G02*
X152625000Y-67225000I-275000J0D01*
G01*
G37*
%TD*%
D10*
%TO.C,J5*%
X161290000Y-83820000D03*
D11*
X161290000Y-81280000D03*
%TD*%
D10*
%TO.C,J4*%
X184277000Y-41275000D03*
D11*
X184277000Y-38735000D03*
%TD*%
D10*
%TO.C,J2*%
X129286000Y-83820000D03*
D11*
X129286000Y-81280000D03*
%TD*%
%TO.C,J1*%
X154940000Y-38354000D03*
D10*
X154940000Y-40894000D03*
%TD*%
D15*
%TO.C,Q202*%
X186455000Y-67945000D03*
G36*
G01*
X187080000Y-65955000D02*
X185830000Y-65955000D01*
G75*
G02*
X185555000Y-65680000I0J275000D01*
G01*
X185555000Y-65130000D01*
G75*
G02*
X185830000Y-64855000I275000J0D01*
G01*
X187080000Y-64855000D01*
G75*
G02*
X187355000Y-65130000I0J-275000D01*
G01*
X187355000Y-65680000D01*
G75*
G02*
X187080000Y-65955000I-275000J0D01*
G01*
G37*
G36*
G01*
X185010000Y-67225000D02*
X183760000Y-67225000D01*
G75*
G02*
X183485000Y-66950000I0J275000D01*
G01*
X183485000Y-66400000D01*
G75*
G02*
X183760000Y-66125000I275000J0D01*
G01*
X185010000Y-66125000D01*
G75*
G02*
X185285000Y-66400000I0J-275000D01*
G01*
X185285000Y-66950000D01*
G75*
G02*
X185010000Y-67225000I-275000J0D01*
G01*
G37*
%TD*%
%TO.C,Q201*%
X161690000Y-69596000D03*
G36*
G01*
X162315000Y-67606000D02*
X161065000Y-67606000D01*
G75*
G02*
X160790000Y-67331000I0J275000D01*
G01*
X160790000Y-66781000D01*
G75*
G02*
X161065000Y-66506000I275000J0D01*
G01*
X162315000Y-66506000D01*
G75*
G02*
X162590000Y-66781000I0J-275000D01*
G01*
X162590000Y-67331000D01*
G75*
G02*
X162315000Y-67606000I-275000J0D01*
G01*
G37*
G36*
G01*
X160245000Y-68876000D02*
X158995000Y-68876000D01*
G75*
G02*
X158720000Y-68601000I0J275000D01*
G01*
X158720000Y-68051000D01*
G75*
G02*
X158995000Y-67776000I275000J0D01*
G01*
X160245000Y-67776000D01*
G75*
G02*
X160520000Y-68051000I0J-275000D01*
G01*
X160520000Y-68601000D01*
G75*
G02*
X160245000Y-68876000I-275000J0D01*
G01*
G37*
%TD*%
%TO.C,Q101*%
X130956000Y-69215000D03*
G36*
G01*
X131581000Y-67225000D02*
X130331000Y-67225000D01*
G75*
G02*
X130056000Y-66950000I0J275000D01*
G01*
X130056000Y-66400000D01*
G75*
G02*
X130331000Y-66125000I275000J0D01*
G01*
X131581000Y-66125000D01*
G75*
G02*
X131856000Y-66400000I0J-275000D01*
G01*
X131856000Y-66950000D01*
G75*
G02*
X131581000Y-67225000I-275000J0D01*
G01*
G37*
G36*
G01*
X129511000Y-68495000D02*
X128261000Y-68495000D01*
G75*
G02*
X127986000Y-68220000I0J275000D01*
G01*
X127986000Y-67670000D01*
G75*
G02*
X128261000Y-67395000I275000J0D01*
G01*
X129511000Y-67395000D01*
G75*
G02*
X129786000Y-67670000I0J-275000D01*
G01*
X129786000Y-68220000D01*
G75*
G02*
X129511000Y-68495000I-275000J0D01*
G01*
G37*
%TD*%
D16*
%TO.C,C1*%
X192532000Y-80391000D03*
D14*
X192532000Y-82891000D03*
%TD*%
%TO.C,C2*%
X186690000Y-61682000D03*
D16*
X186690000Y-59182000D03*
%TD*%
D14*
%TO.C,C101*%
X129286000Y-76795000D03*
X129286000Y-74295000D03*
%TD*%
%TO.C,C102*%
X149860000Y-78145000D03*
D16*
X149860000Y-80645000D03*
%TD*%
%TO.C,C103*%
X144780000Y-109220000D03*
D14*
X142280000Y-109220000D03*
%TD*%
%TO.C,C104*%
X130810000Y-53895000D03*
X130810000Y-48895000D03*
%TD*%
%TO.C,C105*%
X149860000Y-55245000D03*
X144860000Y-55245000D03*
%TD*%
%TO.C,C106*%
X144145000Y-78105000D03*
X139145000Y-78105000D03*
%TD*%
%TO.C,C107*%
X148590000Y-66755000D03*
X148590000Y-71755000D03*
%TD*%
%TO.C,C108*%
X129540000Y-92075000D03*
X134540000Y-92075000D03*
%TD*%
%TO.C,C109*%
X148670000Y-92075000D03*
X153670000Y-92075000D03*
%TD*%
%TO.C,C201*%
X161290000Y-74295000D03*
X161290000Y-76795000D03*
%TD*%
%TO.C,C202*%
X182245000Y-78145000D03*
D16*
X182245000Y-80645000D03*
%TD*%
%TO.C,C203*%
X177165000Y-109220000D03*
D14*
X174665000Y-109220000D03*
%TD*%
%TO.C,C204*%
X160020000Y-48895000D03*
X160020000Y-53895000D03*
%TD*%
%TO.C,C205*%
X174070000Y-54864000D03*
X179070000Y-54864000D03*
%TD*%
%TO.C,C206*%
X171530000Y-78105000D03*
X176530000Y-78105000D03*
%TD*%
%TO.C,C207*%
X180975000Y-71755000D03*
X180975000Y-66755000D03*
%TD*%
%TO.C,C208*%
X161290000Y-92075000D03*
X166290000Y-92075000D03*
%TD*%
%TO.C,C209*%
X181055000Y-92075000D03*
X186055000Y-92075000D03*
%TD*%
D13*
%TO.C,R101*%
X151130000Y-43942000D03*
D14*
X151130000Y-51562000D03*
%TD*%
%TO.C,R102*%
X154305000Y-51562000D03*
D13*
X154305000Y-43942000D03*
%TD*%
D14*
%TO.C,R103*%
X147955000Y-43942000D03*
D13*
X147955000Y-51562000D03*
%TD*%
D14*
%TO.C,R104*%
X144780000Y-43942000D03*
D13*
X144780000Y-51562000D03*
%TD*%
D14*
%TO.C,R105*%
X133985000Y-42545000D03*
D13*
X141605000Y-42545000D03*
%TD*%
%TO.C,R106*%
X133985000Y-38735000D03*
D14*
X141605000Y-38735000D03*
%TD*%
%TO.C,R107*%
X130810000Y-46355000D03*
D13*
X130810000Y-38735000D03*
%TD*%
%TO.C,R108*%
X127635000Y-46355000D03*
D14*
X127635000Y-53975000D03*
%TD*%
D13*
%TO.C,R109*%
X130810000Y-56515000D03*
D14*
X130810000Y-64135000D03*
%TD*%
D13*
%TO.C,R120*%
X152400000Y-58420000D03*
D14*
X144780000Y-58420000D03*
%TD*%
%TO.C,R121*%
X152400000Y-61595000D03*
D13*
X144780000Y-61595000D03*
%TD*%
%TO.C,R122*%
X127000000Y-101600000D03*
D14*
X134620000Y-101600000D03*
%TD*%
%TO.C,R123*%
X148590000Y-101600000D03*
D13*
X156210000Y-101600000D03*
%TD*%
D14*
%TO.C,R124*%
X134620000Y-85090000D03*
D13*
X134620000Y-77470000D03*
%TD*%
%TO.C,R125*%
X134620000Y-95250000D03*
D14*
X127000000Y-95250000D03*
%TD*%
%TO.C,R126*%
X127000000Y-98425000D03*
D13*
X134620000Y-98425000D03*
%TD*%
D14*
%TO.C,R127*%
X134620000Y-104775000D03*
D13*
X127000000Y-104775000D03*
%TD*%
%TO.C,R128*%
X134620000Y-88900000D03*
D14*
X127000000Y-88900000D03*
%TD*%
D13*
%TO.C,R129*%
X137795000Y-81915000D03*
D14*
X145415000Y-81915000D03*
%TD*%
%TO.C,R130*%
X156210000Y-104775000D03*
D13*
X148590000Y-104775000D03*
%TD*%
%TO.C,R131*%
X134620000Y-66675000D03*
D14*
X134620000Y-74295000D03*
%TD*%
%TO.C,R132*%
X154940000Y-81915000D03*
D13*
X154940000Y-74295000D03*
%TD*%
%TO.C,R133*%
X148590000Y-95250000D03*
D14*
X156210000Y-95250000D03*
%TD*%
D13*
%TO.C,R134*%
X148590000Y-98425000D03*
D14*
X156210000Y-98425000D03*
%TD*%
D13*
%TO.C,R135*%
X127000000Y-107950000D03*
D14*
X134620000Y-107950000D03*
%TD*%
D13*
%TO.C,R136*%
X148590000Y-88900000D03*
D14*
X156210000Y-88900000D03*
%TD*%
%TO.C,R137*%
X156210000Y-85725000D03*
D13*
X148590000Y-85725000D03*
%TD*%
%TO.C,R138*%
X148590000Y-107950000D03*
D14*
X156210000Y-107950000D03*
%TD*%
D13*
%TO.C,R201*%
X180340000Y-44196000D03*
D14*
X180340000Y-51816000D03*
%TD*%
%TO.C,R202*%
X183515000Y-51816000D03*
D13*
X183515000Y-44196000D03*
%TD*%
D14*
%TO.C,R203*%
X177165000Y-44196000D03*
D13*
X177165000Y-51816000D03*
%TD*%
D14*
%TO.C,R204*%
X173990000Y-44196000D03*
D13*
X173990000Y-51816000D03*
%TD*%
%TO.C,R205*%
X170815000Y-42545000D03*
D14*
X163195000Y-42545000D03*
%TD*%
D13*
%TO.C,R206*%
X163195000Y-38735000D03*
D14*
X170815000Y-38735000D03*
%TD*%
%TO.C,R207*%
X160020000Y-46355000D03*
D13*
X160020000Y-38735000D03*
%TD*%
D14*
%TO.C,R208*%
X156845000Y-61595000D03*
D13*
X156845000Y-53975000D03*
%TD*%
D14*
%TO.C,R209*%
X160020000Y-64135000D03*
D13*
X160020000Y-56515000D03*
%TD*%
D14*
%TO.C,R220*%
X173990000Y-58420000D03*
D13*
X181610000Y-58420000D03*
%TD*%
%TO.C,R221*%
X173990000Y-61595000D03*
D14*
X181610000Y-61595000D03*
%TD*%
D13*
%TO.C,R222*%
X159258000Y-101600000D03*
D14*
X166878000Y-101600000D03*
%TD*%
%TO.C,R223*%
X180975000Y-101600000D03*
D13*
X188595000Y-101600000D03*
%TD*%
%TO.C,R224*%
X167005000Y-77470000D03*
D14*
X167005000Y-85090000D03*
%TD*%
%TO.C,R225*%
X159258000Y-95250000D03*
D13*
X166878000Y-95250000D03*
%TD*%
%TO.C,R226*%
X166878000Y-98425000D03*
D14*
X159258000Y-98425000D03*
%TD*%
%TO.C,R227*%
X166878000Y-104775000D03*
D13*
X159258000Y-104775000D03*
%TD*%
D14*
%TO.C,R228*%
X159385000Y-88900000D03*
D13*
X167005000Y-88900000D03*
%TD*%
%TO.C,R229*%
X170180000Y-81915000D03*
D14*
X177800000Y-81915000D03*
%TD*%
%TO.C,R230*%
X188595000Y-104775000D03*
D13*
X180975000Y-104775000D03*
%TD*%
%TO.C,R231*%
X167005000Y-66675000D03*
D14*
X167005000Y-74295000D03*
%TD*%
%TO.C,R232*%
X187325000Y-81915000D03*
D13*
X187325000Y-74295000D03*
%TD*%
%TO.C,R233*%
X180975000Y-95250000D03*
D14*
X188595000Y-95250000D03*
%TD*%
%TO.C,R234*%
X188595000Y-98425000D03*
D13*
X180975000Y-98425000D03*
%TD*%
%TO.C,R235*%
X159258000Y-107950000D03*
D14*
X166878000Y-107950000D03*
%TD*%
D13*
%TO.C,R236*%
X180975000Y-88900000D03*
D14*
X188595000Y-88900000D03*
%TD*%
%TO.C,R237*%
X188595000Y-85725000D03*
D13*
X180975000Y-85725000D03*
%TD*%
%TO.C,R238*%
X180975000Y-107950000D03*
D14*
X188595000Y-107950000D03*
%TD*%
D17*
%TO.C,RV101*%
X145415000Y-40132000D03*
X147955000Y-40132000D03*
X150495000Y-40132000D03*
%TD*%
%TO.C,RV201*%
X174625000Y-40386000D03*
X177165000Y-40386000D03*
X179705000Y-40386000D03*
%TD*%
D13*
%TO.C,U101*%
X141605000Y-46355000D03*
X133985000Y-61595000D03*
X141605000Y-48895000D03*
X133985000Y-59055000D03*
X141605000Y-51435000D03*
X133985000Y-56515000D03*
X141605000Y-53975000D03*
X133985000Y-53975000D03*
X141605000Y-56515000D03*
X133985000Y-51435000D03*
X141605000Y-59055000D03*
X133985000Y-48895000D03*
X141605000Y-61595000D03*
D16*
X133985000Y-46355000D03*
%TD*%
%TO.C,U102*%
X145415000Y-74295000D03*
D13*
X137795000Y-66675000D03*
X145415000Y-71755000D03*
X137795000Y-69215000D03*
X145415000Y-69215000D03*
X137795000Y-71755000D03*
X145415000Y-66675000D03*
X137795000Y-74295000D03*
%TD*%
D16*
%TO.C,U103*%
X145415000Y-104140000D03*
D13*
X137795000Y-86360000D03*
X145415000Y-101600000D03*
X137795000Y-88900000D03*
X145415000Y-99060000D03*
X137795000Y-91440000D03*
X145415000Y-96520000D03*
X137795000Y-93980000D03*
X145415000Y-93980000D03*
X137795000Y-96520000D03*
X145415000Y-91440000D03*
X137795000Y-99060000D03*
X145415000Y-88900000D03*
X137795000Y-101600000D03*
X145415000Y-86360000D03*
X137795000Y-104140000D03*
%TD*%
%TO.C,U201*%
X170815000Y-46355000D03*
X163195000Y-61595000D03*
X170815000Y-48895000D03*
X163195000Y-59055000D03*
X170815000Y-51435000D03*
X163195000Y-56515000D03*
X170815000Y-53975000D03*
X163195000Y-53975000D03*
X170815000Y-56515000D03*
X163195000Y-51435000D03*
X170815000Y-59055000D03*
X163195000Y-48895000D03*
X170815000Y-61595000D03*
D16*
X163195000Y-46355000D03*
%TD*%
%TO.C,U202*%
X177800000Y-74295000D03*
D13*
X170180000Y-66675000D03*
X177800000Y-71755000D03*
X170180000Y-69215000D03*
X177800000Y-69215000D03*
X170180000Y-71755000D03*
X177800000Y-66675000D03*
X170180000Y-74295000D03*
%TD*%
D16*
%TO.C,U203*%
X177800000Y-104140000D03*
D13*
X170180000Y-86360000D03*
X177800000Y-101600000D03*
X170180000Y-88900000D03*
X177800000Y-99060000D03*
X170180000Y-91440000D03*
X177800000Y-96520000D03*
X170180000Y-93980000D03*
X177800000Y-93980000D03*
X170180000Y-96520000D03*
X177800000Y-91440000D03*
X170180000Y-99060000D03*
X177800000Y-88900000D03*
X170180000Y-101600000D03*
X177800000Y-86360000D03*
X170180000Y-104140000D03*
%TD*%
M02*
