%TF.GenerationSoftware,KiCad,Pcbnew,5.1.12-84ad8e8a86~92~ubuntu18.04.1*%
%TF.CreationDate,2022-11-06T13:14:27+00:00*%
%TF.ProjectId,Pan_Mix_A,50616e5f-4d69-4785-9f41-2e6b69636164,rev?*%
%TF.SameCoordinates,Original*%
%TF.FileFunction,Legend,Bot*%
%TF.FilePolarity,Positive*%
%FSLAX46Y46*%
G04 Gerber Fmt 4.6, Leading zero omitted, Abs format (unit mm)*
G04 Created by KiCad (PCBNEW 5.1.12-84ad8e8a86~92~ubuntu18.04.1) date 2022-11-06 13:14:27*
%MOMM*%
%LPD*%
G01*
G04 APERTURE LIST*
%ADD10C,0.120000*%
%ADD11C,0.150000*%
G04 APERTURE END LIST*
D10*
%TO.C,J3*%
X191703000Y-50352000D02*
X189043000Y-50352000D01*
X191703000Y-47752000D02*
X191703000Y-50352000D01*
X189043000Y-47752000D02*
X189043000Y-50352000D01*
X191703000Y-47752000D02*
X189043000Y-47752000D01*
X191703000Y-46482000D02*
X191703000Y-45152000D01*
X191703000Y-45152000D02*
X190373000Y-45152000D01*
%TO.C,J5*%
X162620000Y-79950000D02*
X161290000Y-79950000D01*
X162620000Y-81280000D02*
X162620000Y-79950000D01*
X162620000Y-82550000D02*
X159960000Y-82550000D01*
X159960000Y-82550000D02*
X159960000Y-85150000D01*
X162620000Y-82550000D02*
X162620000Y-85150000D01*
X162620000Y-85150000D02*
X159960000Y-85150000D01*
%TO.C,J4*%
X185607000Y-37405000D02*
X184277000Y-37405000D01*
X185607000Y-38735000D02*
X185607000Y-37405000D01*
X185607000Y-40005000D02*
X182947000Y-40005000D01*
X182947000Y-40005000D02*
X182947000Y-42605000D01*
X185607000Y-40005000D02*
X185607000Y-42605000D01*
X185607000Y-42605000D02*
X182947000Y-42605000D01*
%TO.C,J2*%
X130616000Y-79950000D02*
X129286000Y-79950000D01*
X130616000Y-81280000D02*
X130616000Y-79950000D01*
X130616000Y-82550000D02*
X127956000Y-82550000D01*
X127956000Y-82550000D02*
X127956000Y-85150000D01*
X130616000Y-82550000D02*
X130616000Y-85150000D01*
X130616000Y-85150000D02*
X127956000Y-85150000D01*
%TO.C,J1*%
X156270000Y-42224000D02*
X153610000Y-42224000D01*
X156270000Y-39624000D02*
X156270000Y-42224000D01*
X153610000Y-39624000D02*
X153610000Y-42224000D01*
X156270000Y-39624000D02*
X153610000Y-39624000D01*
X156270000Y-38354000D02*
X156270000Y-37024000D01*
X156270000Y-37024000D02*
X154940000Y-37024000D01*
%TO.C,J3*%
D11*
X188539380Y-46029761D02*
X187539380Y-46029761D01*
X187539380Y-46410714D01*
X187587000Y-46505952D01*
X187634619Y-46553571D01*
X187729857Y-46601190D01*
X187872714Y-46601190D01*
X187967952Y-46553571D01*
X188015571Y-46505952D01*
X188063190Y-46410714D01*
X188063190Y-46029761D01*
X188539380Y-47458333D02*
X188015571Y-47458333D01*
X187920333Y-47410714D01*
X187872714Y-47315476D01*
X187872714Y-47125000D01*
X187920333Y-47029761D01*
X188491761Y-47458333D02*
X188539380Y-47363095D01*
X188539380Y-47125000D01*
X188491761Y-47029761D01*
X188396523Y-46982142D01*
X188301285Y-46982142D01*
X188206047Y-47029761D01*
X188158428Y-47125000D01*
X188158428Y-47363095D01*
X188110809Y-47458333D01*
X187872714Y-47934523D02*
X188539380Y-47934523D01*
X187967952Y-47934523D02*
X187920333Y-47982142D01*
X187872714Y-48077380D01*
X187872714Y-48220238D01*
X187920333Y-48315476D01*
X188015571Y-48363095D01*
X188539380Y-48363095D01*
X187539380Y-48696428D02*
X188539380Y-49029761D01*
X187539380Y-49363095D01*
X192912952Y-46553428D02*
X192151047Y-46553428D01*
X192532000Y-46934380D02*
X192532000Y-46172476D01*
X192912952Y-49093428D02*
X192151047Y-49093428D01*
%TO.C,J5*%
X164028380Y-81296000D02*
X163028380Y-81296000D01*
X164028380Y-81772190D02*
X163028380Y-81772190D01*
X164028380Y-82343619D01*
X163028380Y-82343619D01*
X163123619Y-82772190D02*
X163076000Y-82819809D01*
X163028380Y-82915047D01*
X163028380Y-83153142D01*
X163076000Y-83248380D01*
X163123619Y-83296000D01*
X163218857Y-83343619D01*
X163314095Y-83343619D01*
X163456952Y-83296000D01*
X164028380Y-82724571D01*
X164028380Y-83343619D01*
%TO.C,J4*%
X182443380Y-38187523D02*
X181443380Y-38187523D01*
X181443380Y-38568476D01*
X181491000Y-38663714D01*
X181538619Y-38711333D01*
X181633857Y-38758952D01*
X181776714Y-38758952D01*
X181871952Y-38711333D01*
X181919571Y-38663714D01*
X181967190Y-38568476D01*
X181967190Y-38187523D01*
X182157666Y-39139904D02*
X182157666Y-39616095D01*
X182443380Y-39044666D02*
X181443380Y-39378000D01*
X182443380Y-39711333D01*
X182443380Y-40044666D02*
X181443380Y-40044666D01*
X182443380Y-40616095D01*
X181443380Y-40616095D01*
X181538619Y-41044666D02*
X181491000Y-41092285D01*
X181443380Y-41187523D01*
X181443380Y-41425619D01*
X181491000Y-41520857D01*
X181538619Y-41568476D01*
X181633857Y-41616095D01*
X181729095Y-41616095D01*
X181871952Y-41568476D01*
X182443380Y-40997047D01*
X182443380Y-41616095D01*
X187142380Y-37505000D02*
X186142380Y-37505000D01*
X186142380Y-37885952D01*
X186190000Y-37981190D01*
X186237619Y-38028809D01*
X186332857Y-38076428D01*
X186475714Y-38076428D01*
X186570952Y-38028809D01*
X186618571Y-37981190D01*
X186666190Y-37885952D01*
X186666190Y-37505000D01*
X186237619Y-38457380D02*
X186190000Y-38505000D01*
X186142380Y-38600238D01*
X186142380Y-38838333D01*
X186190000Y-38933571D01*
X186237619Y-38981190D01*
X186332857Y-39028809D01*
X186428095Y-39028809D01*
X186570952Y-38981190D01*
X187142380Y-38409761D01*
X187142380Y-39028809D01*
X187142380Y-40219285D02*
X186142380Y-40219285D01*
X186142380Y-40600238D01*
X186190000Y-40695476D01*
X186237619Y-40743095D01*
X186332857Y-40790714D01*
X186475714Y-40790714D01*
X186570952Y-40743095D01*
X186618571Y-40695476D01*
X186666190Y-40600238D01*
X186666190Y-40219285D01*
X187142380Y-41695476D02*
X187142380Y-41219285D01*
X186142380Y-41219285D01*
X186237619Y-41981190D02*
X186190000Y-42028809D01*
X186142380Y-42124047D01*
X186142380Y-42362142D01*
X186190000Y-42457380D01*
X186237619Y-42505000D01*
X186332857Y-42552619D01*
X186428095Y-42552619D01*
X186570952Y-42505000D01*
X187142380Y-41933571D01*
X187142380Y-42552619D01*
%TO.C,J2*%
X132024380Y-81296000D02*
X131024380Y-81296000D01*
X132024380Y-81772190D02*
X131024380Y-81772190D01*
X132024380Y-82343619D01*
X131024380Y-82343619D01*
X132024380Y-83343619D02*
X132024380Y-82772190D01*
X132024380Y-83057904D02*
X131024380Y-83057904D01*
X131167238Y-82962666D01*
X131262476Y-82867428D01*
X131310095Y-82772190D01*
%TO.C,J1*%
X153106380Y-37933523D02*
X152106380Y-37933523D01*
X152106380Y-38314476D01*
X152154000Y-38409714D01*
X152201619Y-38457333D01*
X152296857Y-38504952D01*
X152439714Y-38504952D01*
X152534952Y-38457333D01*
X152582571Y-38409714D01*
X152630190Y-38314476D01*
X152630190Y-37933523D01*
X152820666Y-38885904D02*
X152820666Y-39362095D01*
X153106380Y-38790666D02*
X152106380Y-39124000D01*
X153106380Y-39457333D01*
X153106380Y-39790666D02*
X152106380Y-39790666D01*
X153106380Y-40362095D01*
X152106380Y-40362095D01*
X153106380Y-41362095D02*
X153106380Y-40790666D01*
X153106380Y-41076380D02*
X152106380Y-41076380D01*
X152249238Y-40981142D01*
X152344476Y-40885904D01*
X152392095Y-40790666D01*
X157805380Y-37124000D02*
X156805380Y-37124000D01*
X156805380Y-37504952D01*
X156853000Y-37600190D01*
X156900619Y-37647809D01*
X156995857Y-37695428D01*
X157138714Y-37695428D01*
X157233952Y-37647809D01*
X157281571Y-37600190D01*
X157329190Y-37504952D01*
X157329190Y-37124000D01*
X157805380Y-38647809D02*
X157805380Y-38076380D01*
X157805380Y-38362095D02*
X156805380Y-38362095D01*
X156948238Y-38266857D01*
X157043476Y-38171619D01*
X157091095Y-38076380D01*
X157805380Y-39838285D02*
X156805380Y-39838285D01*
X156805380Y-40219238D01*
X156853000Y-40314476D01*
X156900619Y-40362095D01*
X156995857Y-40409714D01*
X157138714Y-40409714D01*
X157233952Y-40362095D01*
X157281571Y-40314476D01*
X157329190Y-40219238D01*
X157329190Y-39838285D01*
X157805380Y-41314476D02*
X157805380Y-40838285D01*
X156805380Y-40838285D01*
X157805380Y-42171619D02*
X157805380Y-41600190D01*
X157805380Y-41885904D02*
X156805380Y-41885904D01*
X156948238Y-41790666D01*
X157043476Y-41695428D01*
X157091095Y-41600190D01*
%TD*%
M02*
