%FSLAX45Y45*%
G04 Gerber Fmt 4.5, Leading zero omitted, Abs format (unit mm)*
G04 Created by KiCad (PCBNEW 5.1.12-84ad8e8a86~92~ubuntu18.04.1) date 2022-11-06 13:14:33*
%MOMM*%
%LPD*%
G01*
G04 APERTURE LIST*
%ADD10C,0.200000*%
%ADD11C,0.300000*%
G04 APERTURE END LIST*
D10*
X12891100Y-6757000D02*
X12966100Y-6832000D01*
X12966100Y-6757000D02*
X12891100Y-6832000D01*
X13018100Y-6630000D02*
X13093100Y-6705000D01*
X13093100Y-6630000D02*
X13018100Y-6705000D01*
X13018100Y-6884000D02*
X13093100Y-6959000D01*
X13093100Y-6884000D02*
X13018100Y-6959000D01*
X15202500Y-6630000D02*
X15277500Y-6705000D01*
X15277500Y-6630000D02*
X15202500Y-6705000D01*
X15329500Y-6503000D02*
X15404500Y-6578000D01*
X15404500Y-6503000D02*
X15329500Y-6578000D01*
X15329500Y-6757000D02*
X15404500Y-6832000D01*
X15404500Y-6757000D02*
X15329500Y-6832000D01*
X15964500Y-6795100D02*
X16039500Y-6870100D01*
X16039500Y-6795100D02*
X15964500Y-6870100D01*
X16091500Y-6668100D02*
X16166500Y-6743100D01*
X16166500Y-6668100D02*
X16091500Y-6743100D01*
X16091500Y-6922100D02*
X16166500Y-6997100D01*
X16166500Y-6922100D02*
X16091500Y-6997100D01*
X18441000Y-6630000D02*
X18516000Y-6705000D01*
X18516000Y-6630000D02*
X18441000Y-6705000D01*
X18568000Y-6503000D02*
X18643000Y-6578000D01*
X18643000Y-6503000D02*
X18568000Y-6578000D01*
X18568000Y-6757000D02*
X18643000Y-6832000D01*
X18643000Y-6757000D02*
X18568000Y-6832000D01*
X12740000Y-8890000D02*
G75*
G03*
X12740000Y-8890000I-40000J0D01*
G01*
X12740000Y-9525000D02*
G75*
G03*
X12740000Y-9525000I-40000J0D01*
G01*
X12740000Y-9842500D02*
G75*
G03*
X12740000Y-9842500I-40000J0D01*
G01*
X12740000Y-10160000D02*
G75*
G03*
X12740000Y-10160000I-40000J0D01*
G01*
X12740000Y-10477500D02*
G75*
G03*
X12740000Y-10477500I-40000J0D01*
G01*
X12740000Y-10795000D02*
G75*
G03*
X12740000Y-10795000I-40000J0D01*
G01*
X12803500Y-4635500D02*
G75*
G03*
X12803500Y-4635500I-40000J0D01*
G01*
X12803500Y-5397500D02*
G75*
G03*
X12803500Y-5397500I-40000J0D01*
G01*
X12968600Y-7429500D02*
G75*
G03*
X12968600Y-7429500I-40000J0D01*
G01*
X12968600Y-7679500D02*
G75*
G03*
X12968600Y-7679500I-40000J0D01*
G01*
X12994000Y-9207500D02*
G75*
G03*
X12994000Y-9207500I-40000J0D01*
G01*
X13121000Y-3873500D02*
G75*
G03*
X13121000Y-3873500I-40000J0D01*
G01*
X13121000Y-4635500D02*
G75*
G03*
X13121000Y-4635500I-40000J0D01*
G01*
X13121000Y-4889500D02*
G75*
G03*
X13121000Y-4889500I-40000J0D01*
G01*
X13121000Y-5389500D02*
G75*
G03*
X13121000Y-5389500I-40000J0D01*
G01*
X13121000Y-5651500D02*
G75*
G03*
X13121000Y-5651500I-40000J0D01*
G01*
X13121000Y-6413500D02*
G75*
G03*
X13121000Y-6413500I-40000J0D01*
G01*
X13438500Y-3873500D02*
G75*
G03*
X13438500Y-3873500I-40000J0D01*
G01*
X13438500Y-4254500D02*
G75*
G03*
X13438500Y-4254500I-40000J0D01*
G01*
X13438500Y-4635500D02*
G75*
G03*
X13438500Y-4635500I-40000J0D01*
G01*
X13438500Y-4889500D02*
G75*
G03*
X13438500Y-4889500I-40000J0D01*
G01*
X13438500Y-5143500D02*
G75*
G03*
X13438500Y-5143500I-40000J0D01*
G01*
X13438500Y-5397500D02*
G75*
G03*
X13438500Y-5397500I-40000J0D01*
G01*
X13438500Y-5651500D02*
G75*
G03*
X13438500Y-5651500I-40000J0D01*
G01*
X13438500Y-5905500D02*
G75*
G03*
X13438500Y-5905500I-40000J0D01*
G01*
X13438500Y-6159500D02*
G75*
G03*
X13438500Y-6159500I-40000J0D01*
G01*
X13494000Y-9207500D02*
G75*
G03*
X13494000Y-9207500I-40000J0D01*
G01*
X13502000Y-6667500D02*
G75*
G03*
X13502000Y-6667500I-40000J0D01*
G01*
X13502000Y-7429500D02*
G75*
G03*
X13502000Y-7429500I-40000J0D01*
G01*
X13502000Y-7747000D02*
G75*
G03*
X13502000Y-7747000I-40000J0D01*
G01*
X13502000Y-8509000D02*
G75*
G03*
X13502000Y-8509000I-40000J0D01*
G01*
X13502000Y-8890000D02*
G75*
G03*
X13502000Y-8890000I-40000J0D01*
G01*
X13502000Y-9525000D02*
G75*
G03*
X13502000Y-9525000I-40000J0D01*
G01*
X13502000Y-9842500D02*
G75*
G03*
X13502000Y-9842500I-40000J0D01*
G01*
X13502000Y-10160000D02*
G75*
G03*
X13502000Y-10160000I-40000J0D01*
G01*
X13502000Y-10477500D02*
G75*
G03*
X13502000Y-10477500I-40000J0D01*
G01*
X13502000Y-10795000D02*
G75*
G03*
X13502000Y-10795000I-40000J0D01*
G01*
X13819500Y-6667500D02*
G75*
G03*
X13819500Y-6667500I-40000J0D01*
G01*
X13819500Y-6921500D02*
G75*
G03*
X13819500Y-6921500I-40000J0D01*
G01*
X13819500Y-7175500D02*
G75*
G03*
X13819500Y-7175500I-40000J0D01*
G01*
X13819500Y-7429500D02*
G75*
G03*
X13819500Y-7429500I-40000J0D01*
G01*
X13819500Y-8191500D02*
G75*
G03*
X13819500Y-8191500I-40000J0D01*
G01*
X13819500Y-8636000D02*
G75*
G03*
X13819500Y-8636000I-40000J0D01*
G01*
X13819500Y-8890000D02*
G75*
G03*
X13819500Y-8890000I-40000J0D01*
G01*
X13819500Y-9144000D02*
G75*
G03*
X13819500Y-9144000I-40000J0D01*
G01*
X13819500Y-9398000D02*
G75*
G03*
X13819500Y-9398000I-40000J0D01*
G01*
X13819500Y-9652000D02*
G75*
G03*
X13819500Y-9652000I-40000J0D01*
G01*
X13819500Y-9906000D02*
G75*
G03*
X13819500Y-9906000I-40000J0D01*
G01*
X13819500Y-10160000D02*
G75*
G03*
X13819500Y-10160000I-40000J0D01*
G01*
X13819500Y-10414000D02*
G75*
G03*
X13819500Y-10414000I-40000J0D01*
G01*
X13954500Y-7810500D02*
G75*
G03*
X13954500Y-7810500I-40000J0D01*
G01*
X14200500Y-3873500D02*
G75*
G03*
X14200500Y-3873500I-40000J0D01*
G01*
X14200500Y-4254500D02*
G75*
G03*
X14200500Y-4254500I-40000J0D01*
G01*
X14200500Y-4635500D02*
G75*
G03*
X14200500Y-4635500I-40000J0D01*
G01*
X14200500Y-4889500D02*
G75*
G03*
X14200500Y-4889500I-40000J0D01*
G01*
X14200500Y-5143500D02*
G75*
G03*
X14200500Y-5143500I-40000J0D01*
G01*
X14200500Y-5397500D02*
G75*
G03*
X14200500Y-5397500I-40000J0D01*
G01*
X14200500Y-5651500D02*
G75*
G03*
X14200500Y-5651500I-40000J0D01*
G01*
X14200500Y-5905500D02*
G75*
G03*
X14200500Y-5905500I-40000J0D01*
G01*
X14200500Y-6159500D02*
G75*
G03*
X14200500Y-6159500I-40000J0D01*
G01*
X14268000Y-10922000D02*
G75*
G03*
X14268000Y-10922000I-40000J0D01*
G01*
X14454500Y-7810500D02*
G75*
G03*
X14454500Y-7810500I-40000J0D01*
G01*
X14518000Y-4394200D02*
G75*
G03*
X14518000Y-4394200I-40000J0D01*
G01*
X14518000Y-5156200D02*
G75*
G03*
X14518000Y-5156200I-40000J0D01*
G01*
X14518000Y-5842000D02*
G75*
G03*
X14518000Y-5842000I-40000J0D01*
G01*
X14518000Y-6159500D02*
G75*
G03*
X14518000Y-6159500I-40000J0D01*
G01*
X14518000Y-10922000D02*
G75*
G03*
X14518000Y-10922000I-40000J0D01*
G01*
X14526000Y-5524500D02*
G75*
G03*
X14526000Y-5524500I-40000J0D01*
G01*
X14581500Y-4013200D02*
G75*
G03*
X14581500Y-4013200I-40000J0D01*
G01*
X14581500Y-6667500D02*
G75*
G03*
X14581500Y-6667500I-40000J0D01*
G01*
X14581500Y-6921500D02*
G75*
G03*
X14581500Y-6921500I-40000J0D01*
G01*
X14581500Y-7175500D02*
G75*
G03*
X14581500Y-7175500I-40000J0D01*
G01*
X14581500Y-7429500D02*
G75*
G03*
X14581500Y-7429500I-40000J0D01*
G01*
X14581500Y-8191500D02*
G75*
G03*
X14581500Y-8191500I-40000J0D01*
G01*
X14581500Y-8636000D02*
G75*
G03*
X14581500Y-8636000I-40000J0D01*
G01*
X14581500Y-8890000D02*
G75*
G03*
X14581500Y-8890000I-40000J0D01*
G01*
X14581500Y-9144000D02*
G75*
G03*
X14581500Y-9144000I-40000J0D01*
G01*
X14581500Y-9398000D02*
G75*
G03*
X14581500Y-9398000I-40000J0D01*
G01*
X14581500Y-9652000D02*
G75*
G03*
X14581500Y-9652000I-40000J0D01*
G01*
X14581500Y-9906000D02*
G75*
G03*
X14581500Y-9906000I-40000J0D01*
G01*
X14581500Y-10160000D02*
G75*
G03*
X14581500Y-10160000I-40000J0D01*
G01*
X14581500Y-10414000D02*
G75*
G03*
X14581500Y-10414000I-40000J0D01*
G01*
X14835500Y-4013200D02*
G75*
G03*
X14835500Y-4013200I-40000J0D01*
G01*
X14835500Y-4394200D02*
G75*
G03*
X14835500Y-4394200I-40000J0D01*
G01*
X14835500Y-5156200D02*
G75*
G03*
X14835500Y-5156200I-40000J0D01*
G01*
X14899000Y-6675500D02*
G75*
G03*
X14899000Y-6675500I-40000J0D01*
G01*
X14899000Y-7175500D02*
G75*
G03*
X14899000Y-7175500I-40000J0D01*
G01*
X14899000Y-8572500D02*
G75*
G03*
X14899000Y-8572500I-40000J0D01*
G01*
X14899000Y-8890000D02*
G75*
G03*
X14899000Y-8890000I-40000J0D01*
G01*
X14899000Y-9525000D02*
G75*
G03*
X14899000Y-9525000I-40000J0D01*
G01*
X14899000Y-9842500D02*
G75*
G03*
X14899000Y-9842500I-40000J0D01*
G01*
X14899000Y-10160000D02*
G75*
G03*
X14899000Y-10160000I-40000J0D01*
G01*
X14899000Y-10477500D02*
G75*
G03*
X14899000Y-10477500I-40000J0D01*
G01*
X14899000Y-10795000D02*
G75*
G03*
X14899000Y-10795000I-40000J0D01*
G01*
X14907000Y-9207500D02*
G75*
G03*
X14907000Y-9207500I-40000J0D01*
G01*
X15026000Y-5524500D02*
G75*
G03*
X15026000Y-5524500I-40000J0D01*
G01*
X15026000Y-7814500D02*
G75*
G03*
X15026000Y-7814500I-40000J0D01*
G01*
X15026000Y-8064500D02*
G75*
G03*
X15026000Y-8064500I-40000J0D01*
G01*
X15089500Y-4013200D02*
G75*
G03*
X15089500Y-4013200I-40000J0D01*
G01*
X15153000Y-4394200D02*
G75*
G03*
X15153000Y-4394200I-40000J0D01*
G01*
X15153000Y-5156200D02*
G75*
G03*
X15153000Y-5156200I-40000J0D01*
G01*
X15280000Y-5842000D02*
G75*
G03*
X15280000Y-5842000I-40000J0D01*
G01*
X15280000Y-6159500D02*
G75*
G03*
X15280000Y-6159500I-40000J0D01*
G01*
X15407000Y-9207500D02*
G75*
G03*
X15407000Y-9207500I-40000J0D01*
G01*
X15470500Y-4394200D02*
G75*
G03*
X15470500Y-4394200I-40000J0D01*
G01*
X15470500Y-5156200D02*
G75*
G03*
X15470500Y-5156200I-40000J0D01*
G01*
X15534000Y-7429500D02*
G75*
G03*
X15534000Y-7429500I-40000J0D01*
G01*
X15534000Y-8191500D02*
G75*
G03*
X15534000Y-8191500I-40000J0D01*
G01*
X15661000Y-8572500D02*
G75*
G03*
X15661000Y-8572500I-40000J0D01*
G01*
X15661000Y-8890000D02*
G75*
G03*
X15661000Y-8890000I-40000J0D01*
G01*
X15661000Y-9525000D02*
G75*
G03*
X15661000Y-9525000I-40000J0D01*
G01*
X15661000Y-9842500D02*
G75*
G03*
X15661000Y-9842500I-40000J0D01*
G01*
X15661000Y-10160000D02*
G75*
G03*
X15661000Y-10160000I-40000J0D01*
G01*
X15661000Y-10477500D02*
G75*
G03*
X15661000Y-10477500I-40000J0D01*
G01*
X15661000Y-10795000D02*
G75*
G03*
X15661000Y-10795000I-40000J0D01*
G01*
X15724500Y-5397500D02*
G75*
G03*
X15724500Y-5397500I-40000J0D01*
G01*
X15724500Y-6159500D02*
G75*
G03*
X15724500Y-6159500I-40000J0D01*
G01*
X15965800Y-9525000D02*
G75*
G03*
X15965800Y-9525000I-40000J0D01*
G01*
X15965800Y-9842500D02*
G75*
G03*
X15965800Y-9842500I-40000J0D01*
G01*
X15965800Y-10160000D02*
G75*
G03*
X15965800Y-10160000I-40000J0D01*
G01*
X15965800Y-10477500D02*
G75*
G03*
X15965800Y-10477500I-40000J0D01*
G01*
X15965800Y-10795000D02*
G75*
G03*
X15965800Y-10795000I-40000J0D01*
G01*
X15978500Y-8890000D02*
G75*
G03*
X15978500Y-8890000I-40000J0D01*
G01*
X16042000Y-3873500D02*
G75*
G03*
X16042000Y-3873500I-40000J0D01*
G01*
X16042000Y-4635500D02*
G75*
G03*
X16042000Y-4635500I-40000J0D01*
G01*
X16042000Y-4889500D02*
G75*
G03*
X16042000Y-4889500I-40000J0D01*
G01*
X16042000Y-5389500D02*
G75*
G03*
X16042000Y-5389500I-40000J0D01*
G01*
X16042000Y-5651500D02*
G75*
G03*
X16042000Y-5651500I-40000J0D01*
G01*
X16042000Y-6413500D02*
G75*
G03*
X16042000Y-6413500I-40000J0D01*
G01*
X16169000Y-7429500D02*
G75*
G03*
X16169000Y-7429500I-40000J0D01*
G01*
X16169000Y-7679500D02*
G75*
G03*
X16169000Y-7679500I-40000J0D01*
G01*
X16169000Y-9207500D02*
G75*
G03*
X16169000Y-9207500I-40000J0D01*
G01*
X16359500Y-3873500D02*
G75*
G03*
X16359500Y-3873500I-40000J0D01*
G01*
X16359500Y-4254500D02*
G75*
G03*
X16359500Y-4254500I-40000J0D01*
G01*
X16359500Y-4635500D02*
G75*
G03*
X16359500Y-4635500I-40000J0D01*
G01*
X16359500Y-4889500D02*
G75*
G03*
X16359500Y-4889500I-40000J0D01*
G01*
X16359500Y-5143500D02*
G75*
G03*
X16359500Y-5143500I-40000J0D01*
G01*
X16359500Y-5397500D02*
G75*
G03*
X16359500Y-5397500I-40000J0D01*
G01*
X16359500Y-5651500D02*
G75*
G03*
X16359500Y-5651500I-40000J0D01*
G01*
X16359500Y-5905500D02*
G75*
G03*
X16359500Y-5905500I-40000J0D01*
G01*
X16359500Y-6159500D02*
G75*
G03*
X16359500Y-6159500I-40000J0D01*
G01*
X16669000Y-9207500D02*
G75*
G03*
X16669000Y-9207500I-40000J0D01*
G01*
X16727800Y-9525000D02*
G75*
G03*
X16727800Y-9525000I-40000J0D01*
G01*
X16727800Y-9842500D02*
G75*
G03*
X16727800Y-9842500I-40000J0D01*
G01*
X16727800Y-10160000D02*
G75*
G03*
X16727800Y-10160000I-40000J0D01*
G01*
X16727800Y-10477500D02*
G75*
G03*
X16727800Y-10477500I-40000J0D01*
G01*
X16727800Y-10795000D02*
G75*
G03*
X16727800Y-10795000I-40000J0D01*
G01*
X16740500Y-6667500D02*
G75*
G03*
X16740500Y-6667500I-40000J0D01*
G01*
X16740500Y-7429500D02*
G75*
G03*
X16740500Y-7429500I-40000J0D01*
G01*
X16740500Y-7747000D02*
G75*
G03*
X16740500Y-7747000I-40000J0D01*
G01*
X16740500Y-8509000D02*
G75*
G03*
X16740500Y-8509000I-40000J0D01*
G01*
X16740500Y-8890000D02*
G75*
G03*
X16740500Y-8890000I-40000J0D01*
G01*
X17058000Y-6667500D02*
G75*
G03*
X17058000Y-6667500I-40000J0D01*
G01*
X17058000Y-6921500D02*
G75*
G03*
X17058000Y-6921500I-40000J0D01*
G01*
X17058000Y-7175500D02*
G75*
G03*
X17058000Y-7175500I-40000J0D01*
G01*
X17058000Y-7429500D02*
G75*
G03*
X17058000Y-7429500I-40000J0D01*
G01*
X17058000Y-8191500D02*
G75*
G03*
X17058000Y-8191500I-40000J0D01*
G01*
X17058000Y-8636000D02*
G75*
G03*
X17058000Y-8636000I-40000J0D01*
G01*
X17058000Y-8890000D02*
G75*
G03*
X17058000Y-8890000I-40000J0D01*
G01*
X17058000Y-9144000D02*
G75*
G03*
X17058000Y-9144000I-40000J0D01*
G01*
X17058000Y-9398000D02*
G75*
G03*
X17058000Y-9398000I-40000J0D01*
G01*
X17058000Y-9652000D02*
G75*
G03*
X17058000Y-9652000I-40000J0D01*
G01*
X17058000Y-9906000D02*
G75*
G03*
X17058000Y-9906000I-40000J0D01*
G01*
X17058000Y-10160000D02*
G75*
G03*
X17058000Y-10160000I-40000J0D01*
G01*
X17058000Y-10414000D02*
G75*
G03*
X17058000Y-10414000I-40000J0D01*
G01*
X17121500Y-3873500D02*
G75*
G03*
X17121500Y-3873500I-40000J0D01*
G01*
X17121500Y-4254500D02*
G75*
G03*
X17121500Y-4254500I-40000J0D01*
G01*
X17121500Y-4635500D02*
G75*
G03*
X17121500Y-4635500I-40000J0D01*
G01*
X17121500Y-4889500D02*
G75*
G03*
X17121500Y-4889500I-40000J0D01*
G01*
X17121500Y-5143500D02*
G75*
G03*
X17121500Y-5143500I-40000J0D01*
G01*
X17121500Y-5397500D02*
G75*
G03*
X17121500Y-5397500I-40000J0D01*
G01*
X17121500Y-5651500D02*
G75*
G03*
X17121500Y-5651500I-40000J0D01*
G01*
X17121500Y-5905500D02*
G75*
G03*
X17121500Y-5905500I-40000J0D01*
G01*
X17121500Y-6159500D02*
G75*
G03*
X17121500Y-6159500I-40000J0D01*
G01*
X17193000Y-7810500D02*
G75*
G03*
X17193000Y-7810500I-40000J0D01*
G01*
X17439000Y-4419600D02*
G75*
G03*
X17439000Y-4419600I-40000J0D01*
G01*
X17439000Y-5181600D02*
G75*
G03*
X17439000Y-5181600I-40000J0D01*
G01*
X17439000Y-5842000D02*
G75*
G03*
X17439000Y-5842000I-40000J0D01*
G01*
X17439000Y-6159500D02*
G75*
G03*
X17439000Y-6159500I-40000J0D01*
G01*
X17447000Y-5486400D02*
G75*
G03*
X17447000Y-5486400I-40000J0D01*
G01*
X17502500Y-4038600D02*
G75*
G03*
X17502500Y-4038600I-40000J0D01*
G01*
X17506500Y-10922000D02*
G75*
G03*
X17506500Y-10922000I-40000J0D01*
G01*
X17693000Y-7810500D02*
G75*
G03*
X17693000Y-7810500I-40000J0D01*
G01*
X17756500Y-4038600D02*
G75*
G03*
X17756500Y-4038600I-40000J0D01*
G01*
X17756500Y-4419600D02*
G75*
G03*
X17756500Y-4419600I-40000J0D01*
G01*
X17756500Y-5181600D02*
G75*
G03*
X17756500Y-5181600I-40000J0D01*
G01*
X17756500Y-10922000D02*
G75*
G03*
X17756500Y-10922000I-40000J0D01*
G01*
X17820000Y-6667500D02*
G75*
G03*
X17820000Y-6667500I-40000J0D01*
G01*
X17820000Y-6921500D02*
G75*
G03*
X17820000Y-6921500I-40000J0D01*
G01*
X17820000Y-7175500D02*
G75*
G03*
X17820000Y-7175500I-40000J0D01*
G01*
X17820000Y-7429500D02*
G75*
G03*
X17820000Y-7429500I-40000J0D01*
G01*
X17820000Y-8191500D02*
G75*
G03*
X17820000Y-8191500I-40000J0D01*
G01*
X17820000Y-8636000D02*
G75*
G03*
X17820000Y-8636000I-40000J0D01*
G01*
X17820000Y-8890000D02*
G75*
G03*
X17820000Y-8890000I-40000J0D01*
G01*
X17820000Y-9144000D02*
G75*
G03*
X17820000Y-9144000I-40000J0D01*
G01*
X17820000Y-9398000D02*
G75*
G03*
X17820000Y-9398000I-40000J0D01*
G01*
X17820000Y-9652000D02*
G75*
G03*
X17820000Y-9652000I-40000J0D01*
G01*
X17820000Y-9906000D02*
G75*
G03*
X17820000Y-9906000I-40000J0D01*
G01*
X17820000Y-10160000D02*
G75*
G03*
X17820000Y-10160000I-40000J0D01*
G01*
X17820000Y-10414000D02*
G75*
G03*
X17820000Y-10414000I-40000J0D01*
G01*
X17947000Y-5486400D02*
G75*
G03*
X17947000Y-5486400I-40000J0D01*
G01*
X18010500Y-4038600D02*
G75*
G03*
X18010500Y-4038600I-40000J0D01*
G01*
X18074000Y-4419600D02*
G75*
G03*
X18074000Y-4419600I-40000J0D01*
G01*
X18074000Y-5181600D02*
G75*
G03*
X18074000Y-5181600I-40000J0D01*
G01*
X18137500Y-6675500D02*
G75*
G03*
X18137500Y-6675500I-40000J0D01*
G01*
X18137500Y-7175500D02*
G75*
G03*
X18137500Y-7175500I-40000J0D01*
G01*
X18137500Y-8572500D02*
G75*
G03*
X18137500Y-8572500I-40000J0D01*
G01*
X18137500Y-8890000D02*
G75*
G03*
X18137500Y-8890000I-40000J0D01*
G01*
X18137500Y-9525000D02*
G75*
G03*
X18137500Y-9525000I-40000J0D01*
G01*
X18137500Y-9842500D02*
G75*
G03*
X18137500Y-9842500I-40000J0D01*
G01*
X18137500Y-10160000D02*
G75*
G03*
X18137500Y-10160000I-40000J0D01*
G01*
X18137500Y-10477500D02*
G75*
G03*
X18137500Y-10477500I-40000J0D01*
G01*
X18137500Y-10795000D02*
G75*
G03*
X18137500Y-10795000I-40000J0D01*
G01*
X18145500Y-9207500D02*
G75*
G03*
X18145500Y-9207500I-40000J0D01*
G01*
X18201000Y-5842000D02*
G75*
G03*
X18201000Y-5842000I-40000J0D01*
G01*
X18201000Y-6159500D02*
G75*
G03*
X18201000Y-6159500I-40000J0D01*
G01*
X18213700Y-5486400D02*
G75*
G03*
X18213700Y-5486400I-40000J0D01*
G01*
X18264500Y-7814500D02*
G75*
G03*
X18264500Y-7814500I-40000J0D01*
G01*
X18264500Y-8064500D02*
G75*
G03*
X18264500Y-8064500I-40000J0D01*
G01*
X18391500Y-4419600D02*
G75*
G03*
X18391500Y-4419600I-40000J0D01*
G01*
X18391500Y-5181600D02*
G75*
G03*
X18391500Y-5181600I-40000J0D01*
G01*
X18645500Y-9207500D02*
G75*
G03*
X18645500Y-9207500I-40000J0D01*
G01*
X18709000Y-5918200D02*
G75*
G03*
X18709000Y-5918200I-40000J0D01*
G01*
X18709000Y-6168200D02*
G75*
G03*
X18709000Y-6168200I-40000J0D01*
G01*
X18721700Y-4419600D02*
G75*
G03*
X18721700Y-4419600I-40000J0D01*
G01*
X18721700Y-5181600D02*
G75*
G03*
X18721700Y-5181600I-40000J0D01*
G01*
X18772500Y-7429500D02*
G75*
G03*
X18772500Y-7429500I-40000J0D01*
G01*
X18772500Y-8191500D02*
G75*
G03*
X18772500Y-8191500I-40000J0D01*
G01*
X18899500Y-8572500D02*
G75*
G03*
X18899500Y-8572500I-40000J0D01*
G01*
X18899500Y-8890000D02*
G75*
G03*
X18899500Y-8890000I-40000J0D01*
G01*
X18899500Y-9525000D02*
G75*
G03*
X18899500Y-9525000I-40000J0D01*
G01*
X18899500Y-9842500D02*
G75*
G03*
X18899500Y-9842500I-40000J0D01*
G01*
X18899500Y-10160000D02*
G75*
G03*
X18899500Y-10160000I-40000J0D01*
G01*
X18899500Y-10477500D02*
G75*
G03*
X18899500Y-10477500I-40000J0D01*
G01*
X18899500Y-10795000D02*
G75*
G03*
X18899500Y-10795000I-40000J0D01*
G01*
X18975700Y-5486400D02*
G75*
G03*
X18975700Y-5486400I-40000J0D01*
G01*
X19293200Y-8039100D02*
G75*
G03*
X19293200Y-8039100I-40000J0D01*
G01*
X19293200Y-8289100D02*
G75*
G03*
X19293200Y-8289100I-40000J0D01*
G01*
X12928600Y-8078000D02*
X12928600Y-8178000D01*
X12878600Y-8128000D02*
X12978600Y-8128000D01*
X12928600Y-8332000D02*
X12928600Y-8432000D01*
X12878600Y-8382000D02*
X12978600Y-8382000D01*
X15494000Y-3785400D02*
X15494000Y-3885400D01*
X15444000Y-3835400D02*
X15544000Y-3835400D01*
X15494000Y-4039400D02*
X15494000Y-4139400D01*
X15444000Y-4089400D02*
X15544000Y-4089400D01*
X16129000Y-8078000D02*
X16129000Y-8178000D01*
X16079000Y-8128000D02*
X16179000Y-8128000D01*
X16129000Y-8332000D02*
X16129000Y-8432000D01*
X16079000Y-8382000D02*
X16179000Y-8382000D01*
X18427700Y-3823500D02*
X18427700Y-3923500D01*
X18377700Y-3873500D02*
X18477700Y-3873500D01*
X18427700Y-4077500D02*
X18427700Y-4177500D01*
X18377700Y-4127500D02*
X18477700Y-4127500D01*
X19037300Y-4598200D02*
X19037300Y-4698200D01*
X18987300Y-4648200D02*
X19087300Y-4648200D01*
X19037300Y-4852200D02*
X19037300Y-4952200D01*
X18987300Y-4902200D02*
X19087300Y-4902200D01*
X19507200Y-6554000D02*
X19507200Y-6654000D01*
X19457200Y-6604000D02*
X19557200Y-6604000D01*
X19507200Y-6808000D02*
X19507200Y-6908000D01*
X19457200Y-6858000D02*
X19557200Y-6858000D01*
X19507200Y-7062000D02*
X19507200Y-7162000D01*
X19457200Y-7112000D02*
X19557200Y-7112000D01*
X19507200Y-7316000D02*
X19507200Y-7416000D01*
X19457200Y-7366000D02*
X19557200Y-7366000D01*
X19507200Y-7570000D02*
X19507200Y-7670000D01*
X19457200Y-7620000D02*
X19557200Y-7620000D01*
X19442538Y-4113638D02*
X19442538Y-3887362D01*
X19216262Y-3887362D01*
X19216262Y-4113638D01*
X19442538Y-4113638D01*
X19442538Y-11035138D02*
X19442538Y-10808862D01*
X19216262Y-10808862D01*
X19216262Y-11035138D01*
X19442538Y-11035138D01*
D11*
X286429Y-465714D02*
X286429Y-165714D01*
X357857Y-165714D01*
X400714Y-180000D01*
X429286Y-208571D01*
X443571Y-237143D01*
X457857Y-294286D01*
X457857Y-337143D01*
X443571Y-394286D01*
X429286Y-422857D01*
X400714Y-451428D01*
X357857Y-465714D01*
X286429Y-465714D01*
X586429Y-465714D02*
X586429Y-265714D01*
X586429Y-322857D02*
X600714Y-294286D01*
X615000Y-280000D01*
X643571Y-265714D01*
X672143Y-265714D01*
X772143Y-465714D02*
X772143Y-265714D01*
X772143Y-165714D02*
X757857Y-180000D01*
X772143Y-194286D01*
X786428Y-180000D01*
X772143Y-165714D01*
X772143Y-194286D01*
X957857Y-465714D02*
X929286Y-451428D01*
X915000Y-422857D01*
X915000Y-165714D01*
X1115000Y-465714D02*
X1086429Y-451428D01*
X1072143Y-422857D01*
X1072143Y-165714D01*
X1457857Y-465714D02*
X1457857Y-165714D01*
X1557857Y-380000D01*
X1657857Y-165714D01*
X1657857Y-465714D01*
X1929286Y-465714D02*
X1929286Y-308571D01*
X1915000Y-280000D01*
X1886428Y-265714D01*
X1829286Y-265714D01*
X1800714Y-280000D01*
X1929286Y-451428D02*
X1900714Y-465714D01*
X1829286Y-465714D01*
X1800714Y-451428D01*
X1786428Y-422857D01*
X1786428Y-394286D01*
X1800714Y-365714D01*
X1829286Y-351428D01*
X1900714Y-351428D01*
X1929286Y-337143D01*
X2072143Y-265714D02*
X2072143Y-565714D01*
X2072143Y-280000D02*
X2100714Y-265714D01*
X2157857Y-265714D01*
X2186429Y-280000D01*
X2200714Y-294286D01*
X2215000Y-322857D01*
X2215000Y-408571D01*
X2200714Y-437143D01*
X2186429Y-451428D01*
X2157857Y-465714D01*
X2100714Y-465714D01*
X2072143Y-451428D01*
X2343571Y-437143D02*
X2357857Y-451428D01*
X2343571Y-465714D01*
X2329286Y-451428D01*
X2343571Y-437143D01*
X2343571Y-465714D01*
X2343571Y-280000D02*
X2357857Y-294286D01*
X2343571Y-308571D01*
X2329286Y-294286D01*
X2343571Y-280000D01*
X2343571Y-308571D01*
X-75000Y-922500D02*
X0Y-997500D01*
X0Y-922500D02*
X-75000Y-997500D01*
X343571Y-795714D02*
X372143Y-795714D01*
X400714Y-810000D01*
X415000Y-824286D01*
X429286Y-852857D01*
X443571Y-910000D01*
X443571Y-981428D01*
X429286Y-1038571D01*
X415000Y-1067143D01*
X400714Y-1081429D01*
X372143Y-1095714D01*
X343571Y-1095714D01*
X315000Y-1081429D01*
X300714Y-1067143D01*
X286429Y-1038571D01*
X272143Y-981428D01*
X272143Y-910000D01*
X286429Y-852857D01*
X300714Y-824286D01*
X315000Y-810000D01*
X343571Y-795714D01*
X572143Y-1067143D02*
X586429Y-1081429D01*
X572143Y-1095714D01*
X557857Y-1081429D01*
X572143Y-1067143D01*
X572143Y-1095714D01*
X686429Y-795714D02*
X886428Y-795714D01*
X757857Y-1095714D01*
X1143571Y-795714D02*
X1000714Y-795714D01*
X986428Y-938571D01*
X1000714Y-924286D01*
X1029286Y-910000D01*
X1100714Y-910000D01*
X1129286Y-924286D01*
X1143571Y-938571D01*
X1157857Y-967143D01*
X1157857Y-1038571D01*
X1143571Y-1067143D01*
X1129286Y-1081429D01*
X1100714Y-1095714D01*
X1029286Y-1095714D01*
X1000714Y-1081429D01*
X986428Y-1067143D01*
X1343571Y-795714D02*
X1372143Y-795714D01*
X1400714Y-810000D01*
X1415000Y-824286D01*
X1429286Y-852857D01*
X1443571Y-910000D01*
X1443571Y-981428D01*
X1429286Y-1038571D01*
X1415000Y-1067143D01*
X1400714Y-1081429D01*
X1372143Y-1095714D01*
X1343571Y-1095714D01*
X1315000Y-1081429D01*
X1300714Y-1067143D01*
X1286429Y-1038571D01*
X1272143Y-981428D01*
X1272143Y-910000D01*
X1286429Y-852857D01*
X1300714Y-824286D01*
X1315000Y-810000D01*
X1343571Y-795714D01*
X1572143Y-1095714D02*
X1572143Y-895714D01*
X1572143Y-924286D02*
X1586428Y-910000D01*
X1615000Y-895714D01*
X1657857Y-895714D01*
X1686428Y-910000D01*
X1700714Y-938571D01*
X1700714Y-1095714D01*
X1700714Y-938571D02*
X1715000Y-910000D01*
X1743571Y-895714D01*
X1786428Y-895714D01*
X1815000Y-910000D01*
X1829286Y-938571D01*
X1829286Y-1095714D01*
X1972143Y-1095714D02*
X1972143Y-895714D01*
X1972143Y-924286D02*
X1986428Y-910000D01*
X2015000Y-895714D01*
X2057857Y-895714D01*
X2086428Y-910000D01*
X2100714Y-938571D01*
X2100714Y-1095714D01*
X2100714Y-938571D02*
X2115000Y-910000D01*
X2143571Y-895714D01*
X2186429Y-895714D01*
X2215000Y-910000D01*
X2229286Y-938571D01*
X2229286Y-1095714D01*
X2815000Y-781428D02*
X2557857Y-1167143D01*
X3200714Y-795714D02*
X3229286Y-795714D01*
X3257857Y-810000D01*
X3272143Y-824286D01*
X3286428Y-852857D01*
X3300714Y-910000D01*
X3300714Y-981428D01*
X3286428Y-1038571D01*
X3272143Y-1067143D01*
X3257857Y-1081429D01*
X3229286Y-1095714D01*
X3200714Y-1095714D01*
X3172143Y-1081429D01*
X3157857Y-1067143D01*
X3143571Y-1038571D01*
X3129286Y-981428D01*
X3129286Y-910000D01*
X3143571Y-852857D01*
X3157857Y-824286D01*
X3172143Y-810000D01*
X3200714Y-795714D01*
X3429286Y-1067143D02*
X3443571Y-1081429D01*
X3429286Y-1095714D01*
X3415000Y-1081429D01*
X3429286Y-1067143D01*
X3429286Y-1095714D01*
X3629286Y-795714D02*
X3657857Y-795714D01*
X3686428Y-810000D01*
X3700714Y-824286D01*
X3715000Y-852857D01*
X3729286Y-910000D01*
X3729286Y-981428D01*
X3715000Y-1038571D01*
X3700714Y-1067143D01*
X3686428Y-1081429D01*
X3657857Y-1095714D01*
X3629286Y-1095714D01*
X3600714Y-1081429D01*
X3586428Y-1067143D01*
X3572143Y-1038571D01*
X3557857Y-981428D01*
X3557857Y-910000D01*
X3572143Y-852857D01*
X3586428Y-824286D01*
X3600714Y-810000D01*
X3629286Y-795714D01*
X3843571Y-824286D02*
X3857857Y-810000D01*
X3886428Y-795714D01*
X3957857Y-795714D01*
X3986428Y-810000D01*
X4000714Y-824286D01*
X4015000Y-852857D01*
X4015000Y-881428D01*
X4000714Y-924286D01*
X3829286Y-1095714D01*
X4015000Y-1095714D01*
X4157857Y-1095714D02*
X4215000Y-1095714D01*
X4243571Y-1081429D01*
X4257857Y-1067143D01*
X4286429Y-1024286D01*
X4300714Y-967143D01*
X4300714Y-852857D01*
X4286429Y-824286D01*
X4272143Y-810000D01*
X4243571Y-795714D01*
X4186428Y-795714D01*
X4157857Y-810000D01*
X4143571Y-824286D01*
X4129286Y-852857D01*
X4129286Y-924286D01*
X4143571Y-952857D01*
X4157857Y-967143D01*
X4186428Y-981428D01*
X4243571Y-981428D01*
X4272143Y-967143D01*
X4286429Y-952857D01*
X4300714Y-924286D01*
X4572143Y-795714D02*
X4429286Y-795714D01*
X4415000Y-938571D01*
X4429286Y-924286D01*
X4457857Y-910000D01*
X4529286Y-910000D01*
X4557857Y-924286D01*
X4572143Y-938571D01*
X4586429Y-967143D01*
X4586429Y-1038571D01*
X4572143Y-1067143D01*
X4557857Y-1081429D01*
X4529286Y-1095714D01*
X4457857Y-1095714D01*
X4429286Y-1081429D01*
X4415000Y-1067143D01*
X4700714Y-795714D02*
X4700714Y-852857D01*
X4815000Y-795714D02*
X4815000Y-852857D01*
X5257857Y-1210000D02*
X5243571Y-1195714D01*
X5215000Y-1152857D01*
X5200714Y-1124286D01*
X5186429Y-1081429D01*
X5172143Y-1010000D01*
X5172143Y-952857D01*
X5186429Y-881428D01*
X5200714Y-838571D01*
X5215000Y-810000D01*
X5243571Y-767143D01*
X5257857Y-752857D01*
X5529286Y-1095714D02*
X5357857Y-1095714D01*
X5443571Y-1095714D02*
X5443571Y-795714D01*
X5415000Y-838571D01*
X5386429Y-867143D01*
X5357857Y-881428D01*
X5643571Y-824286D02*
X5657857Y-810000D01*
X5686428Y-795714D01*
X5757857Y-795714D01*
X5786428Y-810000D01*
X5800714Y-824286D01*
X5815000Y-852857D01*
X5815000Y-881428D01*
X5800714Y-924286D01*
X5629286Y-1095714D01*
X5815000Y-1095714D01*
X6172143Y-1095714D02*
X6172143Y-795714D01*
X6300714Y-1095714D02*
X6300714Y-938571D01*
X6286428Y-910000D01*
X6257857Y-895714D01*
X6215000Y-895714D01*
X6186428Y-910000D01*
X6172143Y-924286D01*
X6486428Y-1095714D02*
X6457857Y-1081429D01*
X6443571Y-1067143D01*
X6429286Y-1038571D01*
X6429286Y-952857D01*
X6443571Y-924286D01*
X6457857Y-910000D01*
X6486428Y-895714D01*
X6529286Y-895714D01*
X6557857Y-910000D01*
X6572143Y-924286D01*
X6586428Y-952857D01*
X6586428Y-1038571D01*
X6572143Y-1067143D01*
X6557857Y-1081429D01*
X6529286Y-1095714D01*
X6486428Y-1095714D01*
X6757857Y-1095714D02*
X6729286Y-1081429D01*
X6715000Y-1052857D01*
X6715000Y-795714D01*
X6986428Y-1081429D02*
X6957857Y-1095714D01*
X6900714Y-1095714D01*
X6872143Y-1081429D01*
X6857857Y-1052857D01*
X6857857Y-938571D01*
X6872143Y-910000D01*
X6900714Y-895714D01*
X6957857Y-895714D01*
X6986428Y-910000D01*
X7000714Y-938571D01*
X7000714Y-967143D01*
X6857857Y-995714D01*
X7115000Y-1081429D02*
X7143571Y-1095714D01*
X7200714Y-1095714D01*
X7229286Y-1081429D01*
X7243571Y-1052857D01*
X7243571Y-1038571D01*
X7229286Y-1010000D01*
X7200714Y-995714D01*
X7157857Y-995714D01*
X7129286Y-981428D01*
X7115000Y-952857D01*
X7115000Y-938571D01*
X7129286Y-910000D01*
X7157857Y-895714D01*
X7200714Y-895714D01*
X7229286Y-910000D01*
X7343571Y-1210000D02*
X7357857Y-1195714D01*
X7386428Y-1152857D01*
X7400714Y-1124286D01*
X7415000Y-1081429D01*
X7429286Y-1010000D01*
X7429286Y-952857D01*
X7415000Y-881428D01*
X7400714Y-838571D01*
X7386428Y-810000D01*
X7357857Y-767143D01*
X7343571Y-752857D01*
X0Y-1356000D02*
G75*
G03*
X0Y-1356000I-40000J0D01*
G01*
X343571Y-1191714D02*
X372143Y-1191714D01*
X400714Y-1206000D01*
X415000Y-1220286D01*
X429286Y-1248857D01*
X443571Y-1306000D01*
X443571Y-1377429D01*
X429286Y-1434571D01*
X415000Y-1463143D01*
X400714Y-1477428D01*
X372143Y-1491714D01*
X343571Y-1491714D01*
X315000Y-1477428D01*
X300714Y-1463143D01*
X286429Y-1434571D01*
X272143Y-1377429D01*
X272143Y-1306000D01*
X286429Y-1248857D01*
X300714Y-1220286D01*
X315000Y-1206000D01*
X343571Y-1191714D01*
X572143Y-1463143D02*
X586429Y-1477428D01*
X572143Y-1491714D01*
X557857Y-1477428D01*
X572143Y-1463143D01*
X572143Y-1491714D01*
X757857Y-1320286D02*
X729286Y-1306000D01*
X715000Y-1291714D01*
X700714Y-1263143D01*
X700714Y-1248857D01*
X715000Y-1220286D01*
X729286Y-1206000D01*
X757857Y-1191714D01*
X815000Y-1191714D01*
X843571Y-1206000D01*
X857857Y-1220286D01*
X872143Y-1248857D01*
X872143Y-1263143D01*
X857857Y-1291714D01*
X843571Y-1306000D01*
X815000Y-1320286D01*
X757857Y-1320286D01*
X729286Y-1334571D01*
X715000Y-1348857D01*
X700714Y-1377429D01*
X700714Y-1434571D01*
X715000Y-1463143D01*
X729286Y-1477428D01*
X757857Y-1491714D01*
X815000Y-1491714D01*
X843571Y-1477428D01*
X857857Y-1463143D01*
X872143Y-1434571D01*
X872143Y-1377429D01*
X857857Y-1348857D01*
X843571Y-1334571D01*
X815000Y-1320286D01*
X1057857Y-1191714D02*
X1086429Y-1191714D01*
X1115000Y-1206000D01*
X1129286Y-1220286D01*
X1143571Y-1248857D01*
X1157857Y-1306000D01*
X1157857Y-1377429D01*
X1143571Y-1434571D01*
X1129286Y-1463143D01*
X1115000Y-1477428D01*
X1086429Y-1491714D01*
X1057857Y-1491714D01*
X1029286Y-1477428D01*
X1015000Y-1463143D01*
X1000714Y-1434571D01*
X986428Y-1377429D01*
X986428Y-1306000D01*
X1000714Y-1248857D01*
X1015000Y-1220286D01*
X1029286Y-1206000D01*
X1057857Y-1191714D01*
X1343571Y-1191714D02*
X1372143Y-1191714D01*
X1400714Y-1206000D01*
X1415000Y-1220286D01*
X1429286Y-1248857D01*
X1443571Y-1306000D01*
X1443571Y-1377429D01*
X1429286Y-1434571D01*
X1415000Y-1463143D01*
X1400714Y-1477428D01*
X1372143Y-1491714D01*
X1343571Y-1491714D01*
X1315000Y-1477428D01*
X1300714Y-1463143D01*
X1286429Y-1434571D01*
X1272143Y-1377429D01*
X1272143Y-1306000D01*
X1286429Y-1248857D01*
X1300714Y-1220286D01*
X1315000Y-1206000D01*
X1343571Y-1191714D01*
X1572143Y-1491714D02*
X1572143Y-1291714D01*
X1572143Y-1320286D02*
X1586428Y-1306000D01*
X1615000Y-1291714D01*
X1657857Y-1291714D01*
X1686428Y-1306000D01*
X1700714Y-1334571D01*
X1700714Y-1491714D01*
X1700714Y-1334571D02*
X1715000Y-1306000D01*
X1743571Y-1291714D01*
X1786428Y-1291714D01*
X1815000Y-1306000D01*
X1829286Y-1334571D01*
X1829286Y-1491714D01*
X1972143Y-1491714D02*
X1972143Y-1291714D01*
X1972143Y-1320286D02*
X1986428Y-1306000D01*
X2015000Y-1291714D01*
X2057857Y-1291714D01*
X2086428Y-1306000D01*
X2100714Y-1334571D01*
X2100714Y-1491714D01*
X2100714Y-1334571D02*
X2115000Y-1306000D01*
X2143571Y-1291714D01*
X2186429Y-1291714D01*
X2215000Y-1306000D01*
X2229286Y-1334571D01*
X2229286Y-1491714D01*
X2815000Y-1177429D02*
X2557857Y-1563143D01*
X3200714Y-1191714D02*
X3229286Y-1191714D01*
X3257857Y-1206000D01*
X3272143Y-1220286D01*
X3286428Y-1248857D01*
X3300714Y-1306000D01*
X3300714Y-1377429D01*
X3286428Y-1434571D01*
X3272143Y-1463143D01*
X3257857Y-1477428D01*
X3229286Y-1491714D01*
X3200714Y-1491714D01*
X3172143Y-1477428D01*
X3157857Y-1463143D01*
X3143571Y-1434571D01*
X3129286Y-1377429D01*
X3129286Y-1306000D01*
X3143571Y-1248857D01*
X3157857Y-1220286D01*
X3172143Y-1206000D01*
X3200714Y-1191714D01*
X3429286Y-1463143D02*
X3443571Y-1477428D01*
X3429286Y-1491714D01*
X3415000Y-1477428D01*
X3429286Y-1463143D01*
X3429286Y-1491714D01*
X3629286Y-1191714D02*
X3657857Y-1191714D01*
X3686428Y-1206000D01*
X3700714Y-1220286D01*
X3715000Y-1248857D01*
X3729286Y-1306000D01*
X3729286Y-1377429D01*
X3715000Y-1434571D01*
X3700714Y-1463143D01*
X3686428Y-1477428D01*
X3657857Y-1491714D01*
X3629286Y-1491714D01*
X3600714Y-1477428D01*
X3586428Y-1463143D01*
X3572143Y-1434571D01*
X3557857Y-1377429D01*
X3557857Y-1306000D01*
X3572143Y-1248857D01*
X3586428Y-1220286D01*
X3600714Y-1206000D01*
X3629286Y-1191714D01*
X3829286Y-1191714D02*
X4015000Y-1191714D01*
X3915000Y-1306000D01*
X3957857Y-1306000D01*
X3986428Y-1320286D01*
X4000714Y-1334571D01*
X4015000Y-1363143D01*
X4015000Y-1434571D01*
X4000714Y-1463143D01*
X3986428Y-1477428D01*
X3957857Y-1491714D01*
X3872143Y-1491714D01*
X3843571Y-1477428D01*
X3829286Y-1463143D01*
X4300714Y-1491714D02*
X4129286Y-1491714D01*
X4215000Y-1491714D02*
X4215000Y-1191714D01*
X4186428Y-1234571D01*
X4157857Y-1263143D01*
X4129286Y-1277429D01*
X4572143Y-1191714D02*
X4429286Y-1191714D01*
X4415000Y-1334571D01*
X4429286Y-1320286D01*
X4457857Y-1306000D01*
X4529286Y-1306000D01*
X4557857Y-1320286D01*
X4572143Y-1334571D01*
X4586429Y-1363143D01*
X4586429Y-1434571D01*
X4572143Y-1463143D01*
X4557857Y-1477428D01*
X4529286Y-1491714D01*
X4457857Y-1491714D01*
X4429286Y-1477428D01*
X4415000Y-1463143D01*
X4700714Y-1191714D02*
X4700714Y-1248857D01*
X4815000Y-1191714D02*
X4815000Y-1248857D01*
X5257857Y-1606000D02*
X5243571Y-1591714D01*
X5215000Y-1548857D01*
X5200714Y-1520286D01*
X5186429Y-1477428D01*
X5172143Y-1406000D01*
X5172143Y-1348857D01*
X5186429Y-1277429D01*
X5200714Y-1234571D01*
X5215000Y-1206000D01*
X5243571Y-1163143D01*
X5257857Y-1148857D01*
X5357857Y-1220286D02*
X5372143Y-1206000D01*
X5400714Y-1191714D01*
X5472143Y-1191714D01*
X5500714Y-1206000D01*
X5515000Y-1220286D01*
X5529286Y-1248857D01*
X5529286Y-1277429D01*
X5515000Y-1320286D01*
X5343571Y-1491714D01*
X5529286Y-1491714D01*
X5629286Y-1191714D02*
X5815000Y-1191714D01*
X5715000Y-1306000D01*
X5757857Y-1306000D01*
X5786428Y-1320286D01*
X5800714Y-1334571D01*
X5815000Y-1363143D01*
X5815000Y-1434571D01*
X5800714Y-1463143D01*
X5786428Y-1477428D01*
X5757857Y-1491714D01*
X5672143Y-1491714D01*
X5643571Y-1477428D01*
X5629286Y-1463143D01*
X5986428Y-1320286D02*
X5957857Y-1306000D01*
X5943571Y-1291714D01*
X5929286Y-1263143D01*
X5929286Y-1248857D01*
X5943571Y-1220286D01*
X5957857Y-1206000D01*
X5986428Y-1191714D01*
X6043571Y-1191714D01*
X6072143Y-1206000D01*
X6086428Y-1220286D01*
X6100714Y-1248857D01*
X6100714Y-1263143D01*
X6086428Y-1291714D01*
X6072143Y-1306000D01*
X6043571Y-1320286D01*
X5986428Y-1320286D01*
X5957857Y-1334571D01*
X5943571Y-1348857D01*
X5929286Y-1377429D01*
X5929286Y-1434571D01*
X5943571Y-1463143D01*
X5957857Y-1477428D01*
X5986428Y-1491714D01*
X6043571Y-1491714D01*
X6072143Y-1477428D01*
X6086428Y-1463143D01*
X6100714Y-1434571D01*
X6100714Y-1377429D01*
X6086428Y-1348857D01*
X6072143Y-1334571D01*
X6043571Y-1320286D01*
X6457857Y-1491714D02*
X6457857Y-1191714D01*
X6586428Y-1491714D02*
X6586428Y-1334571D01*
X6572143Y-1306000D01*
X6543571Y-1291714D01*
X6500714Y-1291714D01*
X6472143Y-1306000D01*
X6457857Y-1320286D01*
X6772143Y-1491714D02*
X6743571Y-1477428D01*
X6729286Y-1463143D01*
X6715000Y-1434571D01*
X6715000Y-1348857D01*
X6729286Y-1320286D01*
X6743571Y-1306000D01*
X6772143Y-1291714D01*
X6815000Y-1291714D01*
X6843571Y-1306000D01*
X6857857Y-1320286D01*
X6872143Y-1348857D01*
X6872143Y-1434571D01*
X6857857Y-1463143D01*
X6843571Y-1477428D01*
X6815000Y-1491714D01*
X6772143Y-1491714D01*
X7043571Y-1491714D02*
X7015000Y-1477428D01*
X7000714Y-1448857D01*
X7000714Y-1191714D01*
X7272143Y-1477428D02*
X7243571Y-1491714D01*
X7186428Y-1491714D01*
X7157857Y-1477428D01*
X7143571Y-1448857D01*
X7143571Y-1334571D01*
X7157857Y-1306000D01*
X7186428Y-1291714D01*
X7243571Y-1291714D01*
X7272143Y-1306000D01*
X7286428Y-1334571D01*
X7286428Y-1363143D01*
X7143571Y-1391714D01*
X7400714Y-1477428D02*
X7429286Y-1491714D01*
X7486428Y-1491714D01*
X7515000Y-1477428D01*
X7529286Y-1448857D01*
X7529286Y-1434571D01*
X7515000Y-1406000D01*
X7486428Y-1391714D01*
X7443571Y-1391714D01*
X7415000Y-1377429D01*
X7400714Y-1348857D01*
X7400714Y-1334571D01*
X7415000Y-1306000D01*
X7443571Y-1291714D01*
X7486428Y-1291714D01*
X7515000Y-1306000D01*
X7629286Y-1606000D02*
X7643571Y-1591714D01*
X7672143Y-1548857D01*
X7686428Y-1520286D01*
X7700714Y-1477428D01*
X7715000Y-1406000D01*
X7715000Y-1348857D01*
X7700714Y-1277429D01*
X7686428Y-1234571D01*
X7672143Y-1206000D01*
X7643571Y-1163143D01*
X7629286Y-1148857D01*
X-50000Y-1702000D02*
X-50000Y-1802000D01*
X-100000Y-1752000D02*
X0Y-1752000D01*
X443571Y-1887714D02*
X272143Y-1887714D01*
X357857Y-1887714D02*
X357857Y-1587714D01*
X329286Y-1630571D01*
X300714Y-1659143D01*
X272143Y-1673428D01*
X572143Y-1859143D02*
X586429Y-1873428D01*
X572143Y-1887714D01*
X557857Y-1873428D01*
X572143Y-1859143D01*
X572143Y-1887714D01*
X772143Y-1587714D02*
X800714Y-1587714D01*
X829286Y-1602000D01*
X843571Y-1616286D01*
X857857Y-1644857D01*
X872143Y-1702000D01*
X872143Y-1773428D01*
X857857Y-1830571D01*
X843571Y-1859143D01*
X829286Y-1873428D01*
X800714Y-1887714D01*
X772143Y-1887714D01*
X743571Y-1873428D01*
X729286Y-1859143D01*
X715000Y-1830571D01*
X700714Y-1773428D01*
X700714Y-1702000D01*
X715000Y-1644857D01*
X729286Y-1616286D01*
X743571Y-1602000D01*
X772143Y-1587714D01*
X1057857Y-1587714D02*
X1086429Y-1587714D01*
X1115000Y-1602000D01*
X1129286Y-1616286D01*
X1143571Y-1644857D01*
X1157857Y-1702000D01*
X1157857Y-1773428D01*
X1143571Y-1830571D01*
X1129286Y-1859143D01*
X1115000Y-1873428D01*
X1086429Y-1887714D01*
X1057857Y-1887714D01*
X1029286Y-1873428D01*
X1015000Y-1859143D01*
X1000714Y-1830571D01*
X986428Y-1773428D01*
X986428Y-1702000D01*
X1000714Y-1644857D01*
X1015000Y-1616286D01*
X1029286Y-1602000D01*
X1057857Y-1587714D01*
X1343571Y-1587714D02*
X1372143Y-1587714D01*
X1400714Y-1602000D01*
X1415000Y-1616286D01*
X1429286Y-1644857D01*
X1443571Y-1702000D01*
X1443571Y-1773428D01*
X1429286Y-1830571D01*
X1415000Y-1859143D01*
X1400714Y-1873428D01*
X1372143Y-1887714D01*
X1343571Y-1887714D01*
X1315000Y-1873428D01*
X1300714Y-1859143D01*
X1286429Y-1830571D01*
X1272143Y-1773428D01*
X1272143Y-1702000D01*
X1286429Y-1644857D01*
X1300714Y-1616286D01*
X1315000Y-1602000D01*
X1343571Y-1587714D01*
X1572143Y-1887714D02*
X1572143Y-1687714D01*
X1572143Y-1716286D02*
X1586428Y-1702000D01*
X1615000Y-1687714D01*
X1657857Y-1687714D01*
X1686428Y-1702000D01*
X1700714Y-1730571D01*
X1700714Y-1887714D01*
X1700714Y-1730571D02*
X1715000Y-1702000D01*
X1743571Y-1687714D01*
X1786428Y-1687714D01*
X1815000Y-1702000D01*
X1829286Y-1730571D01*
X1829286Y-1887714D01*
X1972143Y-1887714D02*
X1972143Y-1687714D01*
X1972143Y-1716286D02*
X1986428Y-1702000D01*
X2015000Y-1687714D01*
X2057857Y-1687714D01*
X2086428Y-1702000D01*
X2100714Y-1730571D01*
X2100714Y-1887714D01*
X2100714Y-1730571D02*
X2115000Y-1702000D01*
X2143571Y-1687714D01*
X2186429Y-1687714D01*
X2215000Y-1702000D01*
X2229286Y-1730571D01*
X2229286Y-1887714D01*
X2815000Y-1573428D02*
X2557857Y-1959143D01*
X3200714Y-1587714D02*
X3229286Y-1587714D01*
X3257857Y-1602000D01*
X3272143Y-1616286D01*
X3286428Y-1644857D01*
X3300714Y-1702000D01*
X3300714Y-1773428D01*
X3286428Y-1830571D01*
X3272143Y-1859143D01*
X3257857Y-1873428D01*
X3229286Y-1887714D01*
X3200714Y-1887714D01*
X3172143Y-1873428D01*
X3157857Y-1859143D01*
X3143571Y-1830571D01*
X3129286Y-1773428D01*
X3129286Y-1702000D01*
X3143571Y-1644857D01*
X3157857Y-1616286D01*
X3172143Y-1602000D01*
X3200714Y-1587714D01*
X3429286Y-1859143D02*
X3443571Y-1873428D01*
X3429286Y-1887714D01*
X3415000Y-1873428D01*
X3429286Y-1859143D01*
X3429286Y-1887714D01*
X3629286Y-1587714D02*
X3657857Y-1587714D01*
X3686428Y-1602000D01*
X3700714Y-1616286D01*
X3715000Y-1644857D01*
X3729286Y-1702000D01*
X3729286Y-1773428D01*
X3715000Y-1830571D01*
X3700714Y-1859143D01*
X3686428Y-1873428D01*
X3657857Y-1887714D01*
X3629286Y-1887714D01*
X3600714Y-1873428D01*
X3586428Y-1859143D01*
X3572143Y-1830571D01*
X3557857Y-1773428D01*
X3557857Y-1702000D01*
X3572143Y-1644857D01*
X3586428Y-1616286D01*
X3600714Y-1602000D01*
X3629286Y-1587714D01*
X3829286Y-1587714D02*
X4015000Y-1587714D01*
X3915000Y-1702000D01*
X3957857Y-1702000D01*
X3986428Y-1716286D01*
X4000714Y-1730571D01*
X4015000Y-1759143D01*
X4015000Y-1830571D01*
X4000714Y-1859143D01*
X3986428Y-1873428D01*
X3957857Y-1887714D01*
X3872143Y-1887714D01*
X3843571Y-1873428D01*
X3829286Y-1859143D01*
X4157857Y-1887714D02*
X4215000Y-1887714D01*
X4243571Y-1873428D01*
X4257857Y-1859143D01*
X4286429Y-1816286D01*
X4300714Y-1759143D01*
X4300714Y-1644857D01*
X4286429Y-1616286D01*
X4272143Y-1602000D01*
X4243571Y-1587714D01*
X4186428Y-1587714D01*
X4157857Y-1602000D01*
X4143571Y-1616286D01*
X4129286Y-1644857D01*
X4129286Y-1716286D01*
X4143571Y-1744857D01*
X4157857Y-1759143D01*
X4186428Y-1773428D01*
X4243571Y-1773428D01*
X4272143Y-1759143D01*
X4286429Y-1744857D01*
X4300714Y-1716286D01*
X4557857Y-1687714D02*
X4557857Y-1887714D01*
X4486429Y-1573428D02*
X4415000Y-1787714D01*
X4600714Y-1787714D01*
X4700714Y-1587714D02*
X4700714Y-1644857D01*
X4815000Y-1587714D02*
X4815000Y-1644857D01*
X5257857Y-2002000D02*
X5243571Y-1987714D01*
X5215000Y-1944857D01*
X5200714Y-1916286D01*
X5186429Y-1873428D01*
X5172143Y-1802000D01*
X5172143Y-1744857D01*
X5186429Y-1673428D01*
X5200714Y-1630571D01*
X5215000Y-1602000D01*
X5243571Y-1559143D01*
X5257857Y-1544857D01*
X5529286Y-1887714D02*
X5357857Y-1887714D01*
X5443571Y-1887714D02*
X5443571Y-1587714D01*
X5415000Y-1630571D01*
X5386429Y-1659143D01*
X5357857Y-1673428D01*
X5800714Y-1587714D02*
X5657857Y-1587714D01*
X5643571Y-1730571D01*
X5657857Y-1716286D01*
X5686428Y-1702000D01*
X5757857Y-1702000D01*
X5786428Y-1716286D01*
X5800714Y-1730571D01*
X5815000Y-1759143D01*
X5815000Y-1830571D01*
X5800714Y-1859143D01*
X5786428Y-1873428D01*
X5757857Y-1887714D01*
X5686428Y-1887714D01*
X5657857Y-1873428D01*
X5643571Y-1859143D01*
X6172143Y-1887714D02*
X6172143Y-1587714D01*
X6300714Y-1887714D02*
X6300714Y-1730571D01*
X6286428Y-1702000D01*
X6257857Y-1687714D01*
X6215000Y-1687714D01*
X6186428Y-1702000D01*
X6172143Y-1716286D01*
X6486428Y-1887714D02*
X6457857Y-1873428D01*
X6443571Y-1859143D01*
X6429286Y-1830571D01*
X6429286Y-1744857D01*
X6443571Y-1716286D01*
X6457857Y-1702000D01*
X6486428Y-1687714D01*
X6529286Y-1687714D01*
X6557857Y-1702000D01*
X6572143Y-1716286D01*
X6586428Y-1744857D01*
X6586428Y-1830571D01*
X6572143Y-1859143D01*
X6557857Y-1873428D01*
X6529286Y-1887714D01*
X6486428Y-1887714D01*
X6757857Y-1887714D02*
X6729286Y-1873428D01*
X6715000Y-1844857D01*
X6715000Y-1587714D01*
X6986428Y-1873428D02*
X6957857Y-1887714D01*
X6900714Y-1887714D01*
X6872143Y-1873428D01*
X6857857Y-1844857D01*
X6857857Y-1730571D01*
X6872143Y-1702000D01*
X6900714Y-1687714D01*
X6957857Y-1687714D01*
X6986428Y-1702000D01*
X7000714Y-1730571D01*
X7000714Y-1759143D01*
X6857857Y-1787714D01*
X7115000Y-1873428D02*
X7143571Y-1887714D01*
X7200714Y-1887714D01*
X7229286Y-1873428D01*
X7243571Y-1844857D01*
X7243571Y-1830571D01*
X7229286Y-1802000D01*
X7200714Y-1787714D01*
X7157857Y-1787714D01*
X7129286Y-1773428D01*
X7115000Y-1744857D01*
X7115000Y-1730571D01*
X7129286Y-1702000D01*
X7157857Y-1687714D01*
X7200714Y-1687714D01*
X7229286Y-1702000D01*
X7343571Y-2002000D02*
X7357857Y-1987714D01*
X7386428Y-1944857D01*
X7400714Y-1916286D01*
X7415000Y-1873428D01*
X7429286Y-1802000D01*
X7429286Y-1744857D01*
X7415000Y-1673428D01*
X7400714Y-1630571D01*
X7386428Y-1602000D01*
X7357857Y-1559143D01*
X7343571Y-1544857D01*
X-46862Y-2261138D02*
X-46862Y-2034862D01*
X-273138Y-2034862D01*
X-273138Y-2261138D01*
X-46862Y-2261138D01*
X257857Y-1983714D02*
X443571Y-1983714D01*
X343571Y-2098000D01*
X386428Y-2098000D01*
X415000Y-2112286D01*
X429286Y-2126571D01*
X443571Y-2155143D01*
X443571Y-2226571D01*
X429286Y-2255143D01*
X415000Y-2269429D01*
X386428Y-2283714D01*
X300714Y-2283714D01*
X272143Y-2269429D01*
X257857Y-2255143D01*
X572143Y-2255143D02*
X586429Y-2269429D01*
X572143Y-2283714D01*
X557857Y-2269429D01*
X572143Y-2255143D01*
X572143Y-2283714D01*
X700714Y-2012286D02*
X715000Y-1998000D01*
X743571Y-1983714D01*
X815000Y-1983714D01*
X843571Y-1998000D01*
X857857Y-2012286D01*
X872143Y-2040857D01*
X872143Y-2069428D01*
X857857Y-2112286D01*
X686429Y-2283714D01*
X872143Y-2283714D01*
X1057857Y-1983714D02*
X1086429Y-1983714D01*
X1115000Y-1998000D01*
X1129286Y-2012286D01*
X1143571Y-2040857D01*
X1157857Y-2098000D01*
X1157857Y-2169429D01*
X1143571Y-2226571D01*
X1129286Y-2255143D01*
X1115000Y-2269429D01*
X1086429Y-2283714D01*
X1057857Y-2283714D01*
X1029286Y-2269429D01*
X1015000Y-2255143D01*
X1000714Y-2226571D01*
X986428Y-2169429D01*
X986428Y-2098000D01*
X1000714Y-2040857D01*
X1015000Y-2012286D01*
X1029286Y-1998000D01*
X1057857Y-1983714D01*
X1343571Y-1983714D02*
X1372143Y-1983714D01*
X1400714Y-1998000D01*
X1415000Y-2012286D01*
X1429286Y-2040857D01*
X1443571Y-2098000D01*
X1443571Y-2169429D01*
X1429286Y-2226571D01*
X1415000Y-2255143D01*
X1400714Y-2269429D01*
X1372143Y-2283714D01*
X1343571Y-2283714D01*
X1315000Y-2269429D01*
X1300714Y-2255143D01*
X1286429Y-2226571D01*
X1272143Y-2169429D01*
X1272143Y-2098000D01*
X1286429Y-2040857D01*
X1300714Y-2012286D01*
X1315000Y-1998000D01*
X1343571Y-1983714D01*
X1572143Y-2283714D02*
X1572143Y-2083714D01*
X1572143Y-2112286D02*
X1586428Y-2098000D01*
X1615000Y-2083714D01*
X1657857Y-2083714D01*
X1686428Y-2098000D01*
X1700714Y-2126571D01*
X1700714Y-2283714D01*
X1700714Y-2126571D02*
X1715000Y-2098000D01*
X1743571Y-2083714D01*
X1786428Y-2083714D01*
X1815000Y-2098000D01*
X1829286Y-2126571D01*
X1829286Y-2283714D01*
X1972143Y-2283714D02*
X1972143Y-2083714D01*
X1972143Y-2112286D02*
X1986428Y-2098000D01*
X2015000Y-2083714D01*
X2057857Y-2083714D01*
X2086428Y-2098000D01*
X2100714Y-2126571D01*
X2100714Y-2283714D01*
X2100714Y-2126571D02*
X2115000Y-2098000D01*
X2143571Y-2083714D01*
X2186429Y-2083714D01*
X2215000Y-2098000D01*
X2229286Y-2126571D01*
X2229286Y-2283714D01*
X2815000Y-1969428D02*
X2557857Y-2355143D01*
X3200714Y-1983714D02*
X3229286Y-1983714D01*
X3257857Y-1998000D01*
X3272143Y-2012286D01*
X3286428Y-2040857D01*
X3300714Y-2098000D01*
X3300714Y-2169429D01*
X3286428Y-2226571D01*
X3272143Y-2255143D01*
X3257857Y-2269429D01*
X3229286Y-2283714D01*
X3200714Y-2283714D01*
X3172143Y-2269429D01*
X3157857Y-2255143D01*
X3143571Y-2226571D01*
X3129286Y-2169429D01*
X3129286Y-2098000D01*
X3143571Y-2040857D01*
X3157857Y-2012286D01*
X3172143Y-1998000D01*
X3200714Y-1983714D01*
X3429286Y-2255143D02*
X3443571Y-2269429D01*
X3429286Y-2283714D01*
X3415000Y-2269429D01*
X3429286Y-2255143D01*
X3429286Y-2283714D01*
X3729286Y-2283714D02*
X3557857Y-2283714D01*
X3643571Y-2283714D02*
X3643571Y-1983714D01*
X3615000Y-2026571D01*
X3586428Y-2055143D01*
X3557857Y-2069428D01*
X3843571Y-2012286D02*
X3857857Y-1998000D01*
X3886428Y-1983714D01*
X3957857Y-1983714D01*
X3986428Y-1998000D01*
X4000714Y-2012286D01*
X4015000Y-2040857D01*
X4015000Y-2069428D01*
X4000714Y-2112286D01*
X3829286Y-2283714D01*
X4015000Y-2283714D01*
X4272143Y-1983714D02*
X4215000Y-1983714D01*
X4186428Y-1998000D01*
X4172143Y-2012286D01*
X4143571Y-2055143D01*
X4129286Y-2112286D01*
X4129286Y-2226571D01*
X4143571Y-2255143D01*
X4157857Y-2269429D01*
X4186428Y-2283714D01*
X4243571Y-2283714D01*
X4272143Y-2269429D01*
X4286429Y-2255143D01*
X4300714Y-2226571D01*
X4300714Y-2155143D01*
X4286429Y-2126571D01*
X4272143Y-2112286D01*
X4243571Y-2098000D01*
X4186428Y-2098000D01*
X4157857Y-2112286D01*
X4143571Y-2126571D01*
X4129286Y-2155143D01*
X4486429Y-1983714D02*
X4515000Y-1983714D01*
X4543571Y-1998000D01*
X4557857Y-2012286D01*
X4572143Y-2040857D01*
X4586429Y-2098000D01*
X4586429Y-2169429D01*
X4572143Y-2226571D01*
X4557857Y-2255143D01*
X4543571Y-2269429D01*
X4515000Y-2283714D01*
X4486429Y-2283714D01*
X4457857Y-2269429D01*
X4443571Y-2255143D01*
X4429286Y-2226571D01*
X4415000Y-2169429D01*
X4415000Y-2098000D01*
X4429286Y-2040857D01*
X4443571Y-2012286D01*
X4457857Y-1998000D01*
X4486429Y-1983714D01*
X4700714Y-1983714D02*
X4700714Y-2040857D01*
X4815000Y-1983714D02*
X4815000Y-2040857D01*
X5257857Y-2398000D02*
X5243571Y-2383714D01*
X5215000Y-2340857D01*
X5200714Y-2312286D01*
X5186429Y-2269429D01*
X5172143Y-2198000D01*
X5172143Y-2140857D01*
X5186429Y-2069428D01*
X5200714Y-2026571D01*
X5215000Y-1998000D01*
X5243571Y-1955143D01*
X5257857Y-1940857D01*
X5357857Y-2012286D02*
X5372143Y-1998000D01*
X5400714Y-1983714D01*
X5472143Y-1983714D01*
X5500714Y-1998000D01*
X5515000Y-2012286D01*
X5529286Y-2040857D01*
X5529286Y-2069428D01*
X5515000Y-2112286D01*
X5343571Y-2283714D01*
X5529286Y-2283714D01*
X5886428Y-2283714D02*
X5886428Y-1983714D01*
X6015000Y-2283714D02*
X6015000Y-2126571D01*
X6000714Y-2098000D01*
X5972143Y-2083714D01*
X5929286Y-2083714D01*
X5900714Y-2098000D01*
X5886428Y-2112286D01*
X6200714Y-2283714D02*
X6172143Y-2269429D01*
X6157857Y-2255143D01*
X6143571Y-2226571D01*
X6143571Y-2140857D01*
X6157857Y-2112286D01*
X6172143Y-2098000D01*
X6200714Y-2083714D01*
X6243571Y-2083714D01*
X6272143Y-2098000D01*
X6286428Y-2112286D01*
X6300714Y-2140857D01*
X6300714Y-2226571D01*
X6286428Y-2255143D01*
X6272143Y-2269429D01*
X6243571Y-2283714D01*
X6200714Y-2283714D01*
X6472143Y-2283714D02*
X6443571Y-2269429D01*
X6429286Y-2240857D01*
X6429286Y-1983714D01*
X6700714Y-2269429D02*
X6672143Y-2283714D01*
X6615000Y-2283714D01*
X6586428Y-2269429D01*
X6572143Y-2240857D01*
X6572143Y-2126571D01*
X6586428Y-2098000D01*
X6615000Y-2083714D01*
X6672143Y-2083714D01*
X6700714Y-2098000D01*
X6715000Y-2126571D01*
X6715000Y-2155143D01*
X6572143Y-2183714D01*
X6829286Y-2269429D02*
X6857857Y-2283714D01*
X6915000Y-2283714D01*
X6943571Y-2269429D01*
X6957857Y-2240857D01*
X6957857Y-2226571D01*
X6943571Y-2198000D01*
X6915000Y-2183714D01*
X6872143Y-2183714D01*
X6843571Y-2169429D01*
X6829286Y-2140857D01*
X6829286Y-2126571D01*
X6843571Y-2098000D01*
X6872143Y-2083714D01*
X6915000Y-2083714D01*
X6943571Y-2098000D01*
X7057857Y-2398000D02*
X7072143Y-2383714D01*
X7100714Y-2340857D01*
X7115000Y-2312286D01*
X7129286Y-2269429D01*
X7143571Y-2198000D01*
X7143571Y-2140857D01*
X7129286Y-2069428D01*
X7115000Y-2026571D01*
X7100714Y-1998000D01*
X7072143Y-1955143D01*
X7057857Y-1940857D01*
X7600714Y-2398000D02*
X7586428Y-2383714D01*
X7557857Y-2340857D01*
X7543571Y-2312286D01*
X7529286Y-2269429D01*
X7515000Y-2198000D01*
X7515000Y-2140857D01*
X7529286Y-2069428D01*
X7543571Y-2026571D01*
X7557857Y-1998000D01*
X7586428Y-1955143D01*
X7600714Y-1940857D01*
X7715000Y-2083714D02*
X7715000Y-2283714D01*
X7715000Y-2112286D02*
X7729286Y-2098000D01*
X7757857Y-2083714D01*
X7800714Y-2083714D01*
X7829286Y-2098000D01*
X7843571Y-2126571D01*
X7843571Y-2283714D01*
X8029286Y-2283714D02*
X8000714Y-2269429D01*
X7986428Y-2255143D01*
X7972143Y-2226571D01*
X7972143Y-2140857D01*
X7986428Y-2112286D01*
X8000714Y-2098000D01*
X8029286Y-2083714D01*
X8072143Y-2083714D01*
X8100714Y-2098000D01*
X8115000Y-2112286D01*
X8129286Y-2140857D01*
X8129286Y-2226571D01*
X8115000Y-2255143D01*
X8100714Y-2269429D01*
X8072143Y-2283714D01*
X8029286Y-2283714D01*
X8215000Y-2083714D02*
X8329286Y-2083714D01*
X8257857Y-1983714D02*
X8257857Y-2240857D01*
X8272143Y-2269429D01*
X8300714Y-2283714D01*
X8329286Y-2283714D01*
X8657857Y-2083714D02*
X8657857Y-2383714D01*
X8657857Y-2098000D02*
X8686429Y-2083714D01*
X8743571Y-2083714D01*
X8772143Y-2098000D01*
X8786429Y-2112286D01*
X8800714Y-2140857D01*
X8800714Y-2226571D01*
X8786429Y-2255143D01*
X8772143Y-2269429D01*
X8743571Y-2283714D01*
X8686429Y-2283714D01*
X8657857Y-2269429D01*
X8972143Y-2283714D02*
X8943571Y-2269429D01*
X8929286Y-2240857D01*
X8929286Y-1983714D01*
X9215000Y-2283714D02*
X9215000Y-2126571D01*
X9200714Y-2098000D01*
X9172143Y-2083714D01*
X9115000Y-2083714D01*
X9086429Y-2098000D01*
X9215000Y-2269429D02*
X9186429Y-2283714D01*
X9115000Y-2283714D01*
X9086429Y-2269429D01*
X9072143Y-2240857D01*
X9072143Y-2212286D01*
X9086429Y-2183714D01*
X9115000Y-2169429D01*
X9186429Y-2169429D01*
X9215000Y-2155143D01*
X9315000Y-2083714D02*
X9429286Y-2083714D01*
X9357857Y-1983714D02*
X9357857Y-2240857D01*
X9372143Y-2269429D01*
X9400714Y-2283714D01*
X9429286Y-2283714D01*
X9643571Y-2269429D02*
X9615000Y-2283714D01*
X9557857Y-2283714D01*
X9529286Y-2269429D01*
X9515000Y-2240857D01*
X9515000Y-2126571D01*
X9529286Y-2098000D01*
X9557857Y-2083714D01*
X9615000Y-2083714D01*
X9643571Y-2098000D01*
X9657857Y-2126571D01*
X9657857Y-2155143D01*
X9515000Y-2183714D01*
X9915000Y-2283714D02*
X9915000Y-1983714D01*
X9915000Y-2269429D02*
X9886429Y-2283714D01*
X9829286Y-2283714D01*
X9800714Y-2269429D01*
X9786429Y-2255143D01*
X9772143Y-2226571D01*
X9772143Y-2140857D01*
X9786429Y-2112286D01*
X9800714Y-2098000D01*
X9829286Y-2083714D01*
X9886429Y-2083714D01*
X9915000Y-2098000D01*
X10029286Y-2398000D02*
X10043571Y-2383714D01*
X10072143Y-2340857D01*
X10086429Y-2312286D01*
X10100714Y-2269429D01*
X10115000Y-2198000D01*
X10115000Y-2140857D01*
X10100714Y-2069428D01*
X10086429Y-2026571D01*
X10072143Y-1998000D01*
X10043571Y-1955143D01*
X10029286Y-1940857D01*
M02*
