%TF.GenerationSoftware,KiCad,Pcbnew,5.1.12-84ad8e8a86~92~ubuntu18.04.1*%
%TF.CreationDate,2022-11-06T13:14:27+00:00*%
%TF.ProjectId,Pan_Mix_A,50616e5f-4d69-4785-9f41-2e6b69636164,rev?*%
%TF.SameCoordinates,Original*%
%TF.FileFunction,Profile,NP*%
%FSLAX46Y46*%
G04 Gerber Fmt 4.6, Leading zero omitted, Abs format (unit mm)*
G04 Created by KiCad (PCBNEW 5.1.12-84ad8e8a86~92~ubuntu18.04.1) date 2022-11-06 13:14:27*
%MOMM*%
%LPD*%
G01*
G04 APERTURE LIST*
%ADD10C,0.254000*%
%ADD11C,0.100000*%
G04 APERTURE END LIST*
D10*
X197993000Y-114173000D02*
X123952000Y-114173000D01*
X123952000Y-35560000D01*
X124333000Y-35560000D01*
X124333000Y-113665000D01*
X124335440Y-113689776D01*
X124342667Y-113713601D01*
X124354403Y-113735557D01*
X124370197Y-113754803D01*
X124389443Y-113770597D01*
X124411399Y-113782333D01*
X124435224Y-113789560D01*
X124460000Y-113792000D01*
X197485000Y-113792000D01*
X197509776Y-113789560D01*
X197533601Y-113782333D01*
X197555557Y-113770597D01*
X197574803Y-113754803D01*
X197590597Y-113735557D01*
X197602333Y-113713601D01*
X197609560Y-113689776D01*
X197612000Y-113665000D01*
X197612000Y-35560000D01*
X197609560Y-35535224D01*
X197602333Y-35511399D01*
X197590597Y-35489443D01*
X197574803Y-35470197D01*
X197555557Y-35454403D01*
X197533601Y-35442667D01*
X197509776Y-35435440D01*
X197485000Y-35433000D01*
X124460000Y-35433000D01*
X124435224Y-35435440D01*
X124411399Y-35442667D01*
X124389443Y-35454403D01*
X124370197Y-35470197D01*
X124354403Y-35489443D01*
X124342667Y-35511399D01*
X124335440Y-35535224D01*
X124333000Y-35560000D01*
X123952000Y-35560000D01*
X123952000Y-35052000D01*
X197993000Y-35052000D01*
X197993000Y-114173000D01*
D11*
G36*
X197993000Y-114173000D02*
G01*
X123952000Y-114173000D01*
X123952000Y-35560000D01*
X124333000Y-35560000D01*
X124333000Y-113665000D01*
X124335440Y-113689776D01*
X124342667Y-113713601D01*
X124354403Y-113735557D01*
X124370197Y-113754803D01*
X124389443Y-113770597D01*
X124411399Y-113782333D01*
X124435224Y-113789560D01*
X124460000Y-113792000D01*
X197485000Y-113792000D01*
X197509776Y-113789560D01*
X197533601Y-113782333D01*
X197555557Y-113770597D01*
X197574803Y-113754803D01*
X197590597Y-113735557D01*
X197602333Y-113713601D01*
X197609560Y-113689776D01*
X197612000Y-113665000D01*
X197612000Y-35560000D01*
X197609560Y-35535224D01*
X197602333Y-35511399D01*
X197590597Y-35489443D01*
X197574803Y-35470197D01*
X197555557Y-35454403D01*
X197533601Y-35442667D01*
X197509776Y-35435440D01*
X197485000Y-35433000D01*
X124460000Y-35433000D01*
X124435224Y-35435440D01*
X124411399Y-35442667D01*
X124389443Y-35454403D01*
X124370197Y-35470197D01*
X124354403Y-35489443D01*
X124342667Y-35511399D01*
X124335440Y-35535224D01*
X124333000Y-35560000D01*
X123952000Y-35560000D01*
X123952000Y-35052000D01*
X197993000Y-35052000D01*
X197993000Y-114173000D01*
G37*
M02*
